<svg xmlns="http://www.w3.org/2000/svg" enable-background="new 0 0 24 24" height="24" viewBox="0 0 24 24" width="24"><g><path d="M0,0h24v24H0V0z" fill="none"/></g><g><path d="M8.7,15.9L4.8,12l3.9-3.9c0.39-0.39,0.39-1.01,0-1.4s-1.01-0.39-1.4,0l-4.59,4.59c-0.39,0.39-0.39,1.02,0,1.41l4.59,4.6 c0.39,0.39,1.01,0.39,1.4,0S9.09,16.29,8.7,15.9z M15.3,15.9l3.9-3.9l-3.9-3.9c-0.39-0.39-0.39-1.01,0-1.4s1.01-0.39,1.4,0 l4.59,4.59c0.39,0.39,0.39,1.02,0,1.41l-4.59,4.6c-0.39,0.39-1.01,0.39-1.4,0C14.91,16.91,14.91,16.29,15.3,15.9z"/></g></svg>