<svg xmlns="http://www.w3.org/2000/svg" enable-background="new 0 0 24 24" height="24" viewBox="0 0 24 24" width="24"><g><rect fill="none" height="24" width="24"/></g><g><g><g><path d="M8.17,17L8.17,17c0.51,0,0.98-0.29,1.2-0.74l1.42-2.84c0.14-0.28,0.21-0.58,0.21-0.89V8c0-1.1-0.9-2-2-2H5.34 C4.6,6,4,6.6,4,7.34v4.32C4,12.4,4.6,13,5.34,13H8l-1.03,2.06C6.52,15.95,7.17,17,8.17,17z M17.17,17L17.17,17 c0.51,0,0.98-0.29,1.2-0.74l1.42-2.84c0.14-0.28,0.21-0.58,0.21-0.89V7.34C20,6.6,19.4,6,18.66,6h-4.32C13.6,6,13,6.6,13,7.34 v4.32C13,12.4,13.6,13,14.34,13H17l-1.03,2.06C15.52,15.95,16.17,17,17.17,17z"/></g></g></g></svg>