<svg id="Layer_1" data-name="Layer 1" xmlns="http://www.w3.org/2000/svg" viewBox="0 0 479.99 131.61"><defs><style>.cls-1{fill:#ce1e55;}.cls-2{fill:#e2215b;}.cls-3{fill:#079b7f;}.cls-4{fill:#00c9a2;}.cls-5{fill:#f2b700;}.cls-6{fill:#daa727;}.cls-7{fill:#0fa3cf;}.cls-8{fill:#13b3e2;}.cls-9{fill:#16152b;}</style></defs><title>NC-Type and Mark Wide Neg</title><path class="cls-1" d="M19.33,27.21A27.2,27.2,0,0,1,65.78,8L27.3,46.45a27.15,27.15,0,0,1-8-19.24"/><path class="cls-2" d="M46.48,27.24A27.21,27.21,0,0,1,8,65.72Z"/><path class="cls-3" d="M27.21,112.13A27.2,27.2,0,0,1,8,65.69l38.48,38.48a27.14,27.14,0,0,1-19.24,8"/><path class="cls-4" d="M27.47,85.16a27.21,27.21,0,1,1,38.48,38.48Z"/><path class="cls-5" d="M77.27,85.18a27.2,27.2,0,0,1,46.44-19.24L85.24,104.42a27.13,27.13,0,0,1-8-19.24"/><path class="cls-6" d="M104.44,85.16A27.21,27.21,0,1,1,66,123.63Z"/><path class="cls-7" d="M104.45,19.51A27.21,27.21,0,0,1,123.69,66L85.21,27.48a27.13,27.13,0,0,1,19.24-8"/><path class="cls-8" d="M104.25,46.45A27.21,27.21,0,1,1,65.77,8Z"/><path class="cls-9" d="M150.27,82.67a1.57,1.57,0,1,1-3.14,0V65.89a1.56,1.56,0,0,1,.63-1.33,1.59,1.59,0,0,1,2.19.35l9.31,12.89V65.92a1.57,1.57,0,0,1,1.56-1.56,1.59,1.59,0,0,1,1.59,1.56V82.67a1.6,1.6,0,0,1-1.59,1.58,1.56,1.56,0,0,1-1.18-.58.8.8,0,0,1-.14-.17l-9.23-12.8Z"/><path class="cls-9" d="M175.92,77.05a7.14,7.14,0,0,1,7-7.21,6.89,6.89,0,0,1,6.95,6.69v.14a.8.8,0,0,1,0,.26,1.39,1.39,0,0,1-1.5,1.15h-9.17a3.77,3.77,0,0,0,1,1.9,4.45,4.45,0,0,0,2.77,1.3,4.7,4.7,0,0,0,3-.72,1.63,1.63,0,0,1,2.16-.09,1.32,1.32,0,0,1,0,1.88,7.29,7.29,0,0,1-5.16,1.9A7.16,7.16,0,0,1,175.92,77.05Zm3.14-1.41h8.16A4.71,4.71,0,0,0,183,72.58,4,4,0,0,0,179.07,75.64Z"/><path class="cls-9" d="M207.75,71.43A1.63,1.63,0,0,1,206.14,73h-.72v8A1.59,1.59,0,0,1,207,82.67a1.56,1.56,0,0,1-1.59,1.58,3.21,3.21,0,0,1-3.2-3.2V73h-.84a1.58,1.58,0,0,1-1.59-1.59,1.56,1.56,0,0,1,1.59-1.58h.84V65.66a1.59,1.59,0,0,1,1.61-1.58,1.56,1.56,0,0,1,1.59,1.58v4.18h.72A1.61,1.61,0,0,1,207.75,71.43Z"/><path class="cls-9" d="M239.26,72.15,234.5,83.34a1.66,1.66,0,0,1-.11.23,0,0,0,0,1,0,0,.79.79,0,0,1-.14.17.09.09,0,0,1-.06,0,.76.76,0,0,1-.17.15s0,0,0,.06a.78.78,0,0,1-.26.14,0,0,0,0,0,0,0,.91.91,0,0,0-.23.06h-.06a.88.88,0,0,1-.29,0,.78.78,0,0,1-.26,0h-.06a.42.42,0,0,0-.2-.06l0,0h0a.7.7,0,0,1-.26-.17v0c-.09,0-.12-.09-.17-.15s-.06,0-.06,0a.78.78,0,0,1-.14-.17,0,0,0,0,1,0,0,1.81,1.81,0,0,1-.12-.23l-2.1-5-2,5c0,.06-.09.14-.14.23v0l-.17.17a0,0,0,0,1,0,0l-.17.17a1,1,0,0,1-.26.17h-.06a0,0,0,0,0,0,0,.31.31,0,0,0-.17.06h-.06a1.07,1.07,0,0,1-.29,0,.88.88,0,0,1-.29,0h-.09a.42.42,0,0,0-.17-.06s0,0-.06,0a.53.53,0,0,1-.26-.17s0,0,0,0a1.11,1.11,0,0,0-.17-.15l-.06,0c0-.06-.09-.12-.12-.17s0,0,0,0a1.59,1.59,0,0,0-.14-.23l-4.73-11.19a1.49,1.49,0,0,1,.84-2,1.43,1.43,0,0,1,1.9.86l3.4,7.75,2-4.81a1.54,1.54,0,0,1,1.41-.92A1.48,1.48,0,0,1,231,74l2,4.81,3.4-7.75a1.44,1.44,0,0,1,1.93-.86A1.51,1.51,0,0,1,239.26,72.15Z"/><path class="cls-9" d="M254.08,82.15a7.2,7.2,0,0,1-2-5.07,7.44,7.44,0,0,1,2-5,6.73,6.73,0,0,1,5-2.19A6.37,6.37,0,0,1,263.85,72a7.2,7.2,0,0,1,2,5,7,7,0,0,1-2,5.07A6.37,6.37,0,0,1,259,84.35,6.73,6.73,0,0,1,254.08,82.15Zm1.15-5.07a4.66,4.66,0,0,0,1,3.06A3.9,3.9,0,0,0,259,81.2a3.78,3.78,0,0,0,2.65-1.07,4.43,4.43,0,0,0,1.12-3.06,4.34,4.34,0,0,0-1.12-3A4.07,4.07,0,0,0,259,73a4.19,4.19,0,0,0-2.77,1.1A4.56,4.56,0,0,0,255.23,77.08Z"/><path class="cls-9" d="M287,71.37a1.54,1.54,0,0,1-1.53,1.53,2.75,2.75,0,0,0-1.73.55,4.35,4.35,0,0,0-1.33,1.38,8.87,8.87,0,0,0-1.18,2.42v5.48a1.57,1.57,0,0,1-1.59,1.53,1.54,1.54,0,0,1-1.53-1.53V71.37a1.51,1.51,0,0,1,1.53-1.5,1.55,1.55,0,0,1,1.59,1.5v.2a3.87,3.87,0,0,1,.61-.58,6.33,6.33,0,0,1,3.63-1.12A1.5,1.5,0,0,1,287,71.37Z"/><path class="cls-9" d="M298.71,82.67v-17a1.58,1.58,0,0,1,1.59-1.58,1.61,1.61,0,0,1,1.61,1.58v10l5.91-5.91a1.62,1.62,0,0,1,2.25,0,1.57,1.57,0,0,1,0,2.25l-4.32,4.32,4.44,5.33a1.6,1.6,0,0,1-.23,2.25,1.55,1.55,0,0,1-2.22-.2l-4.24-5.13-1.59,1.59v2.54a1.61,1.61,0,0,1-1.61,1.58A1.58,1.58,0,0,1,298.71,82.67Z"/><path class="cls-9" d="M338.78,73.88A10.58,10.58,0,0,1,349.36,63.5,10.79,10.79,0,0,1,356,65.75a1.71,1.71,0,0,1,.29,2.31,1.69,1.69,0,0,1-2.31.32,7.18,7.18,0,0,0-4.64-1.59,7.64,7.64,0,0,0-5.19,2.08,7.11,7.11,0,0,0-2.1,5,7,7,0,0,0,2.1,5A7.63,7.63,0,0,0,349.36,81,7.25,7.25,0,0,0,354,79.39a1.75,1.75,0,0,1,2.31.32A1.7,1.7,0,0,1,356,82a10.78,10.78,0,0,1-6.66,2.25A10.55,10.55,0,0,1,338.78,73.88Z"/><path class="cls-9" d="M381.71,77.08v5.65a1.54,1.54,0,0,1-1.53,1.53,1.57,1.57,0,0,1-1.5-1.24,6.55,6.55,0,0,1-3.83,1.24,6.7,6.7,0,0,1-4.9-2.1,7.38,7.38,0,0,1-2-5.07,7.27,7.27,0,0,1,2-5.07,6.64,6.64,0,0,1,4.9-2.16,6.57,6.57,0,0,1,3.83,1.27,1.57,1.57,0,0,1,1.5-1.27,1.54,1.54,0,0,1,1.53,1.56Zm-3.05,0a4.24,4.24,0,0,0-1.12-3,3.56,3.56,0,0,0-2.68-1.18,3.48,3.48,0,0,0-2.68,1.18,4.22,4.22,0,0,0-1.1,3,4.32,4.32,0,0,0,1.1,3,3.63,3.63,0,0,0,2.68,1.13A3.72,3.72,0,0,0,377.53,80,4.34,4.34,0,0,0,378.65,77.08Z"/><path class="cls-9" d="M407,75.84v6.89a1.51,1.51,0,0,1-1.5,1.53A1.56,1.56,0,0,1,404,82.73V75.84a3,3,0,0,0-3-2.91,2.88,2.88,0,0,0-2.88,2.91v6.89a.58.58,0,0,1-.06.29,1.58,1.58,0,0,1-1.53,1.24A1.52,1.52,0,0,1,395,82.73V71.37a1.52,1.52,0,0,1,1.53-1.53,1.56,1.56,0,0,1,1.41.89,5.74,5.74,0,0,1,3.05-.89A6,6,0,0,1,407,75.84Z"/><path class="cls-9" d="M431.41,72.15l-4.73,11.19a.61.61,0,0,1-.11.2,0,0,0,0,1,0,0c-.06.06-.12.14-.17.2a0,0,0,0,1,0,0,1,1,0,0,1-.17.17,0,0,0,0,0,0,0,.54.54,0,0,1-.2.14h-.06v0a.56.56,0,0,0-.23.06h-.06a1.05,1.05,0,0,1-.29,0,1,1,0,0,1-.26,0H425a.68.68,0,0,0-.23-.06v0h-.06c-.08,0-.14-.09-.26-.14a0,0,0,0,0,0,0,1,1,0,0,1-.17-.17s0,0-.06,0a.8.8,0,0,0-.14-.2s0,0,0,0-.09-.12-.12-.2l-4.67-11.19a1.46,1.46,0,0,1,.84-2A1.48,1.48,0,0,1,422,71l3.32,7.84L428.64,71a1.49,1.49,0,1,1,2.77,1.13Z"/><path class="cls-9" d="M456.2,77.08v5.65a1.54,1.54,0,0,1-1.53,1.53,1.57,1.57,0,0,1-1.5-1.24,6.55,6.55,0,0,1-3.84,1.24,6.7,6.7,0,0,1-4.9-2.1,7.38,7.38,0,0,1-2-5.07,7.27,7.27,0,0,1,2-5.07,6.55,6.55,0,0,1,8.74-.89,1.57,1.57,0,0,1,1.5-1.27,1.55,1.55,0,0,1,1.53,1.56Zm-3.06,0a4.24,4.24,0,0,0-1.12-3,3.57,3.57,0,0,0-2.68-1.18,3.47,3.47,0,0,0-2.68,1.18,4.22,4.22,0,0,0-1.1,3,4.32,4.32,0,0,0,1.1,3,3.63,3.63,0,0,0,2.68,1.13A3.73,3.73,0,0,0,452,80,4.34,4.34,0,0,0,453.15,77.08Z"/><path class="cls-9" d="M469.09,80.14a1.5,1.5,0,0,1,2.16-.23,5.28,5.28,0,0,0,3.17,1.27,3.85,3.85,0,0,0,2-.55,1.18,1.18,0,0,0,.52-.87.43.43,0,0,0-.09-.29c0-.09-.14-.2-.37-.35a6.67,6.67,0,0,0-2.31-.81h0a11,11,0,0,1-2.51-.75,4.81,4.81,0,0,1-2-1.67,3.5,3.5,0,0,1-.49-1.82,4,4,0,0,1,1.7-3.17,6.2,6.2,0,0,1,3.54-1.07,7.42,7.42,0,0,1,4.33,1.58,1.59,1.59,0,0,1,.46,2.13A1.52,1.52,0,0,1,477,74a4.94,4.94,0,0,0-2.65-1.07,2.93,2.93,0,0,0-1.73.52.88.88,0,0,0-.46.66.31.31,0,0,0,.06.23.76.76,0,0,0,.32.29,5.87,5.87,0,0,0,2.1.69l0,0h0a10.4,10.4,0,0,1,2.68.84,4.48,4.48,0,0,1,2,1.7,3.74,3.74,0,0,1,.55,1.9,4.16,4.16,0,0,1-1.82,3.34,6.56,6.56,0,0,1-3.75,1.15,8.38,8.38,0,0,1-5.13-2A1.54,1.54,0,0,1,469.09,80.14Z"/></svg>