<?xml version="1.0" encoding="utf-8"?>
<!-- Generator: Adobe Illustrator 23.0.0, SVG Export Plug-In . SVG Version: 6.00 Build 0)  -->
<svg version="1.1" id="Layer_1" xmlns="http://www.w3.org/2000/svg" xmlns:xlink="http://www.w3.org/1999/xlink" x="0px" y="0px"
	 viewBox="0 0 512 512" style="enable-background:new 0 0 512 512;" xml:space="preserve">
<style type="text/css">
	.st0{fill:#F2F6F6;}
	.st1{opacity:0.25;fill:#6E6F76;enable-background:new    ;}
	.st2{fill:#6E6F76;}
	.st3{fill:#DBDDDD;}
</style>
<title>NC-File</title>
<g>
	<g id="Server">
		<path class="st0" d="M382.4,481.7H129.2c-29.6,0-53.5-24-53.5-53.5V61.7c0-29.6,24-53.5,53.5-53.5c0,0,0,0,0,0h163.5l143.2,146.1
			v273.8C435.9,457.7,411.9,481.7,382.4,481.7z"/>
		<g id="NC-Flat">
			<circle class="st1" cx="256" cy="295.9" r="127.5"/>
			<circle class="st1" cx="256" cy="295.9" r="67.1"/>
			<g id="NC-Nodes">
				
					<rect x="158.1" y="209.9" transform="matrix(0.7062 -0.708 0.708 0.7062 -86.9193 221.9204)" class="st0" width="131.6" height="11.6"/>
				<polygon class="st0" points="290.7,377.3 165.3,251.9 176.4,240.9 301.8,366.3 				"/>
				
					<ellipse transform="matrix(0.1602 -0.9871 0.9871 0.1602 46.2272 409.2135)" class="st2" cx="263.6" cy="177.4" rx="23.1" ry="23.1"/>
				<circle class="st2" cx="182.5" cy="256.7" r="33.7"/>
				<circle class="st2" cx="312.9" cy="387" r="50.6"/>
			</g>
		</g>
		<path class="st3" d="M435.9,154.3H335.1c-23.4,0-42.4-19-42.4-42.4v0V8.2L435.9,154.3z"/>
	</g>
</g>
</svg>
