<svg id="Layer_1" data-name="Layer 1" xmlns="http://www.w3.org/2000/svg" viewBox="0 0 341.92 131.61"><defs><style>.cls-1{fill:#ce1e55;}.cls-2{fill:#e2215b;}.cls-3{fill:#079b7f;}.cls-4{fill:#00c9a2;}.cls-5{fill:#f2b700;}.cls-6{fill:#daa727;}.cls-7{fill:#0fa3cf;}.cls-8{fill:#13b3e2;}.cls-9{fill:#fff;}</style></defs><title>NC-Type and Mark Stacked Wide Pos</title><path class="cls-1" d="M19.33,27.21A27.2,27.2,0,0,1,65.78,8L27.3,46.45a27.15,27.15,0,0,1-8-19.24"/><path class="cls-2" d="M46.48,27.24A27.21,27.21,0,0,1,8,65.72Z"/><path class="cls-3" d="M27.21,112.13A27.2,27.2,0,0,1,8,65.69l38.48,38.48a27.14,27.14,0,0,1-19.24,8"/><path class="cls-4" d="M27.47,85.16a27.21,27.21,0,1,1,38.48,38.48Z"/><path class="cls-5" d="M77.27,85.18a27.2,27.2,0,0,1,46.44-19.24L85.24,104.42a27.13,27.13,0,0,1-8-19.24"/><path class="cls-6" d="M104.44,85.16A27.21,27.21,0,1,1,66,123.63Z"/><path class="cls-7" d="M104.45,19.51A27.21,27.21,0,0,1,123.69,66L85.21,27.48a27.13,27.13,0,0,1,19.24-8"/><path class="cls-8" d="M104.25,46.45A27.21,27.21,0,1,1,65.77,8Z"/><path class="cls-9" d="M150.82,71.95a1.6,1.6,0,1,1-3.19,0V54a1.7,1.7,0,0,1,.64-1.42,1.56,1.56,0,0,1,2.22.37l9.45,13.76V54.06a1.64,1.64,0,0,1,1.58-1.66,1.66,1.66,0,0,1,1.61,1.66V71.95a1.67,1.67,0,0,1-1.61,1.69,1.56,1.56,0,0,1-1.2-.62.8.8,0,0,1-.15-.19l-9.36-13.67Z"/><path class="cls-9" d="M175.92,71.95V53.78a1.63,1.63,0,0,1,1.61-1.69h9.56a1.67,1.67,0,0,1,1.61,1.69,1.69,1.69,0,0,1-1.61,1.72h-7.93v5.64H186a1.71,1.71,0,0,1,0,3.42h-6.81v5.67h7.93a1.71,1.71,0,0,1,0,3.42h-9.48c-.06,0-.06,0-.06,0l0,0A1.65,1.65,0,0,1,175.92,71.95Z"/><path class="cls-9" d="M213.45,55.51H208.8V71.95a1.63,1.63,0,0,1-1.61,1.69,1.65,1.65,0,0,1-1.61-1.69V55.51H201a1.68,1.68,0,0,1-1.61-1.72A1.63,1.63,0,0,1,201,52.09h12.49a1.65,1.65,0,0,1,1.61,1.69A1.69,1.69,0,0,1,213.45,55.51Z"/><path class="cls-9" d="M254.51,54.64l-7.17,18a.82.82,0,0,1-.14.28l0,0a.81.81,0,0,1-.15.18c0,.06,0,.06,0,.09a.89.89,0,0,0-.21.15h0c-.09.06-.15.15-.26.19h0a0,0,0,0,0,0,0,.87.87,0,0,0-.23.06h-.06a.85.85,0,0,1-.29,0,.77.77,0,0,1-.26,0h-.09a.72.72,0,0,0-.21-.06s0,0-.06,0a.6.6,0,0,1-.26-.19h0c-.09-.06-.15-.12-.2-.15a.24.24,0,0,1-.06-.09c0-.06-.09-.12-.12-.18s-.06,0-.06,0a.78.78,0,0,1-.12-.28l-3.83-9.55-3.83,9.55a2.5,2.5,0,0,1-.12.28s0,0,0,0l-.18.18c0,.06,0,.06,0,.09a.79.79,0,0,0-.18.15h-.06c-.09.06-.17.15-.23.19h0a0,0,0,0,0,0,0,.44.44,0,0,0-.23.06h-.09a.77.77,0,0,1-.26,0,1,1,0,0,1-.29,0h-.09a.71.71,0,0,0-.2-.06s0,0-.06,0a.83.83,0,0,1-.26-.19h0c-.09-.06-.12-.12-.21-.15a.24.24,0,0,1-.06-.09c-.06-.06-.09-.12-.15-.18v0a2.27,2.27,0,0,1-.15-.28l-7.2-18a1.7,1.7,0,0,1,.88-2.19,1.54,1.54,0,0,1,2.08.89l5.73,14.26L239,58.16a1.61,1.61,0,0,1,1.52-1,1.67,1.67,0,0,1,1.52,1l3.77,9.45,5.7-14.26a1.59,1.59,0,0,1,2.13-.89A1.7,1.7,0,0,1,254.51,54.64Z"/><path class="cls-9" d="M282.56,54.77a11.75,11.75,0,0,1,0,15.58,9.37,9.37,0,0,1-7,3.29,9.65,9.65,0,0,1-7.17-3.29,11.92,11.92,0,0,1,0-15.58,9.54,9.54,0,0,1,7.17-3.29A9.27,9.27,0,0,1,282.56,54.77Zm-.38,7.79a8.21,8.21,0,0,0-2-5.39,6.1,6.1,0,0,0-9.36,0,8.06,8.06,0,0,0-2,5.39,7.92,7.92,0,0,0,2,5.36,6,6,0,0,0,9.36,0A8.07,8.07,0,0,0,282.18,62.56Z"/><path class="cls-9" d="M312.48,71.09a1.72,1.72,0,0,1-1,2.16,2.47,2.47,0,0,1-.64.09h0a2.05,2.05,0,0,1-1.14-.34,3,3,0,0,1-.94-1.08,8.65,8.65,0,0,1-.62-3.7,2.7,2.7,0,0,0-.35-1.32,2.79,2.79,0,0,0-.88-.89,5.4,5.4,0,0,0-1.64-.74h-3.45v6.68a1.67,1.67,0,0,1-1.64,1.69,1.65,1.65,0,0,1-1.61-1.69V53.78a1.63,1.63,0,0,1,1.61-1.69h5.24a6.43,6.43,0,0,1,6.26,6.62,6.66,6.66,0,0,1-2.28,5,4.68,4.68,0,0,1,1,1.14,6.06,6.06,0,0,1,1,3.33,8.16,8.16,0,0,0,.12,1.82A1.62,1.62,0,0,1,312.48,71.09Zm-4.1-12.38a3.1,3.1,0,0,0-3-3.2h-3.6v6.34h3.6A3.08,3.08,0,0,0,308.38,58.71Z"/><path class="cls-9" d="M324.88,71.95v-18a1.61,1.61,0,1,1,3.22,0v8.84l9.48-10a1.53,1.53,0,0,1,2.28,0,1.8,1.8,0,0,1,0,2.4l-6.44,6.74,6.49,9a1.71,1.71,0,0,1-.23,2.37,1.44,1.44,0,0,1-1,.4,1.55,1.55,0,0,1-1.2-.62l-6.32-8.71-3,3.26v4.37a1.61,1.61,0,1,1-3.22,0Z"/><path class="cls-9" d="M228.91,94.86a6.54,6.54,0,0,1,6.52-6.47,6.74,6.74,0,0,1,4.08,1.42,1.42,1.42,0,0,1,.28,1.91,1.36,1.36,0,0,1-1.93.26,4.08,4.08,0,0,0-2.44-.83,3.7,3.7,0,1,0,0,7.4,4.14,4.14,0,0,0,2.44-.83,1.39,1.39,0,0,1,1.93.28,1.43,1.43,0,0,1-.28,1.91,7,7,0,0,1-4.08,1.37A6.52,6.52,0,0,1,228.91,94.86Z"/><path class="cls-9" d="M260.79,94.86v5.05a1.37,1.37,0,0,1-1.36,1.37,1.4,1.4,0,0,1-1.33-1.11,5.81,5.81,0,0,1-3.41,1.11,6,6,0,0,1-4.36-1.88,6.62,6.62,0,0,1-1.75-4.54,6.52,6.52,0,0,1,1.75-4.54,5.9,5.9,0,0,1,4.36-1.93,5.83,5.83,0,0,1,3.41,1.13,1.39,1.39,0,0,1,1.33-1.13,1.38,1.38,0,0,1,1.36,1.39Zm-2.72,0a3.8,3.8,0,0,0-1-2.66,3.16,3.16,0,0,0-2.39-1.06,3.09,3.09,0,0,0-2.39,1.06,3.79,3.79,0,0,0-1,2.66,3.88,3.88,0,0,0,1,2.66,3.22,3.22,0,0,0,2.39,1,3.31,3.31,0,0,0,2.39-1A3.89,3.89,0,0,0,258.07,94.86Z"/><path class="cls-9" d="M281.73,93.75v6.16a1.35,1.35,0,0,1-1.33,1.37A1.39,1.39,0,0,1,279,99.92V93.75a2.64,2.64,0,0,0-2.67-2.6,2.57,2.57,0,0,0-2.57,2.6v6.16a.51.51,0,0,1-.05.26,1.41,1.41,0,0,1-1.36,1.11A1.36,1.36,0,0,1,271,99.92V89.76a1.36,1.36,0,0,1,1.36-1.37,1.39,1.39,0,0,1,1.26.8,5.11,5.11,0,0,1,2.72-.8A5.39,5.39,0,0,1,281.73,93.75Z"/><path class="cls-9" d="M301.86,90.45l-4.21,10a.56.56,0,0,1-.1.18,0,0,0,0,1,0,0l-.15.18a0,0,0,0,1,0,0,.89.89,0,0,1-.15.15,0,0,0,0,0,0,0,.47.47,0,0,1-.18.13h-.05v0a.48.48,0,0,0-.21.05h-.05a1,1,0,0,1-.26,0,.88.88,0,0,1-.23,0h-.05a.6.6,0,0,0-.21-.05v0h-.05a2.36,2.36,0,0,1-.23-.13,0,0,0,0,0,0,0,.89.89,0,0,1-.15-.15s0,0-.05,0a.81.81,0,0,0-.13-.18s0,0,0,0-.08-.1-.1-.18l-4.16-10a1.33,1.33,0,1,1,2.46-1l3,7,3-7a1.29,1.29,0,0,1,1.72-.75A1.31,1.31,0,0,1,301.86,90.45Z"/><path class="cls-9" d="M322.34,94.86v5.05a1.37,1.37,0,0,1-1.36,1.37,1.4,1.4,0,0,1-1.33-1.11,5.81,5.81,0,0,1-3.41,1.11,6,6,0,0,1-4.36-1.88,6.62,6.62,0,0,1-1.75-4.54,6.52,6.52,0,0,1,1.75-4.54,5.9,5.9,0,0,1,4.36-1.93,5.83,5.83,0,0,1,3.41,1.13A1.39,1.39,0,0,1,321,88.39a1.38,1.38,0,0,1,1.36,1.39Zm-2.72,0a3.8,3.8,0,0,0-1-2.66,3.16,3.16,0,0,0-2.39-1.06,3.09,3.09,0,0,0-2.39,1.06,3.79,3.79,0,0,0-1,2.66,3.88,3.88,0,0,0,1,2.66,3.22,3.22,0,0,0,2.39,1,3.31,3.31,0,0,0,2.39-1A3.89,3.89,0,0,0,319.62,94.86Z"/><path class="cls-9" d="M332.22,97.6a1.33,1.33,0,0,1,1.92-.21A4.7,4.7,0,0,0,337,98.52a3.42,3.42,0,0,0,1.75-.49,1.06,1.06,0,0,0,.46-.77.39.39,0,0,0-.08-.26c0-.08-.13-.18-.33-.31a5.93,5.93,0,0,0-2.05-.72h0a9.84,9.84,0,0,1-2.23-.67,4.3,4.3,0,0,1-1.77-1.5,3.14,3.14,0,0,1-.44-1.62,3.63,3.63,0,0,1,1.51-2.84,5.5,5.5,0,0,1,3.16-1,6.58,6.58,0,0,1,3.85,1.42,1.43,1.43,0,0,1,.41,1.91,1.35,1.35,0,0,1-1.9.36,4.39,4.39,0,0,0-2.36-1,2.61,2.61,0,0,0-1.54.46.78.78,0,0,0-.41.59.28.28,0,0,0,.05.21.69.69,0,0,0,.28.26,5.22,5.22,0,0,0,1.87.62l0,0h0a9.19,9.19,0,0,1,2.39.75,4,4,0,0,1,1.82,1.52,3.35,3.35,0,0,1,.49,1.7,3.73,3.73,0,0,1-1.62,3,5.82,5.82,0,0,1-3.34,1,7.44,7.44,0,0,1-4.57-1.78A1.38,1.38,0,0,1,332.22,97.6Z"/></svg>