<?xml version="1.0" encoding="utf-8"?>
<!-- Generator: Adobe Illustrator 23.0.3, SVG Export Plug-In . SVG Version: 6.00 Build 0)  -->
<svg version="1.1" id="Layer_1" xmlns="http://www.w3.org/2000/svg" xmlns:xlink="http://www.w3.org/1999/xlink" x="0px" y="0px"
	 viewBox="0 0 263 199.4" style="enable-background:new 0 0 263 199.4;" xml:space="preserve">
<style type="text/css">
	.st0{fill:#CE1E55;}
	.st1{fill:#E2215B;}
	.st2{fill:#079B7F;}
	.st3{fill:#00C9A2;}
	.st4{fill:#F2B700;}
	.st5{fill:#DAA727;}
	.st6{fill:#0FA3CF;}
	.st7{fill:#13B3E2;}
	.st8{fill:#16152B;}
	.st9{fill:none;}
	.st10{clip-path:url(#SVGID_2_);}
	.st11{clip-path:url(#SVGID_4_);}
	.st12{fill:#5E65EA;}
	.st13{enable-background:new    ;}
	.st14{fill:#F2F5F5;}
</style>
<title>NC-Type and Mark Stacked Neg</title>
<g>
	<path class="st0" d="M87.7,27.2C87.7,12.2,99.9,0,115,0c7.2,0,14.1,2.9,19.2,8L95.7,46.5C90.6,41.4,87.7,34.4,87.7,27.2"/>
	<path class="st1" d="M114.9,27.2c10.4,10.8,10.1,28-0.7,38.5c-10.5,10.2-27.3,10.2-37.8,0L114.9,27.2z"/>
	<path class="st2" d="M95.6,112.1c-15,0-27.2-12.2-27.2-27.2c0-7.2,2.9-14.1,8-19.3l38.5,38.5C109.8,109.3,102.8,112.2,95.6,112.1"
		/>
	<path class="st3" d="M95.9,85.2c10.6-10.7,27.8-10.8,38.5-0.2s10.8,27.8,0.2,38.5c-0.1,0.1-0.2,0.2-0.2,0.2L95.9,85.2z"/>
	<path class="st4" d="M145.7,85.2c0-15,12.2-27.2,27.2-27.2c7.2,0,14.1,2.9,19.3,8l-38.5,38.5C148.5,99.3,145.6,92.4,145.7,85.2"/>
	<path class="st5" d="M172.9,85.2c10.8,10.4,11.1,27.7,0.7,38.5c-10.4,10.8-27.7,11.1-38.5,0.7c-0.2-0.2-0.4-0.4-0.7-0.7L172.9,85.2
		z"/>
	<path class="st6" d="M172.9,19.5c15,0,27.2,12.1,27.3,27.1c0,7.3-2.9,14.2-8,19.4l-38.5-38.5C158.7,22.4,165.6,19.5,172.9,19.5"/>
	<path class="st7" d="M172.6,46.5c-10.3,10.9-27.5,11.4-38.5,1.1S122.8,20,133.1,9.1c0.4-0.4,0.7-0.7,1.1-1.1L172.6,46.5z"/>
	<path class="st8" d="M37.6,170.1c0,0.9-0.7,1.6-1.6,1.7c-0.9,0-1.6-0.8-1.6-1.7c0,0,0,0,0,0v-17.9c0-0.5,0.2-1.1,0.6-1.4
		c0.7-0.5,1.7-0.4,2.2,0.3c0,0,0,0,0,0.1l9.5,13.8v-12.7c0-0.9,0.7-1.6,1.6-1.7c0.9,0,1.6,0.8,1.6,1.7v17.9c0,0.9-0.7,1.7-1.6,1.7
		c-0.5,0-0.9-0.2-1.2-0.6c-0.1-0.1-0.1-0.1-0.1-0.2l-9.4-13.7V170.1z"/>
	<path class="st8" d="M62.7,170.1v-18.2c0-0.9,0.7-1.7,1.6-1.7c0,0,0,0,0,0h9.6c0.9,0,1.6,0.8,1.6,1.7c0,0.9-0.7,1.7-1.6,1.7h-7.9
		v5.6h6.8c0.9,0,1.7,0.8,1.7,1.7c0,0.9-0.8,1.7-1.7,1.7h-6.8v5.7h7.9c0.9,0,1.7,0.8,1.7,1.7c0,0.9-0.8,1.7-1.7,1.7h-9.5
		c-0.1,0-0.1,0-0.1,0l0,0C63.4,171.8,62.7,171,62.7,170.1C62.7,170.1,62.7,170.1,62.7,170.1z"/>
	<path class="st8" d="M100.2,153.6h-4.7v16.4c0,0.9-0.7,1.6-1.6,1.6s-1.6-0.7-1.6-1.6v-16.4h-4.6c-0.9,0-1.6-0.8-1.6-1.7
		c0-0.9,0.7-1.7,1.6-1.7c0,0,0,0,0,0h12.5c0.9,0,1.6,0.8,1.6,1.7C101.8,152.8,101.1,153.6,100.2,153.6z"/>
	<path class="st8" d="M141.2,152.8l-7.2,17.9c0,0.1-0.1,0.2-0.1,0.3l0,0c0,0.1-0.1,0.1-0.1,0.2c0,0.1,0,0.1,0,0.1
		c-0.1,0-0.1,0.1-0.2,0.1l0,0c-0.1,0.1-0.1,0.2-0.3,0.2l0,0l0,0c-0.1,0-0.2,0-0.2,0.1H133c-0.1,0-0.2,0-0.3,0c-0.1,0-0.2,0-0.3,0
		h-0.1c-0.1,0-0.1-0.1-0.2-0.1c0,0,0,0-0.1,0c-0.1,0-0.2-0.1-0.3-0.2l0,0c-0.1-0.1-0.1-0.1-0.2-0.1c0,0,0-0.1-0.1-0.1
		c0-0.1-0.1-0.1-0.1-0.2c-0.1,0-0.1,0-0.1,0c-0.1-0.1-0.1-0.2-0.1-0.3l-3.8-9.5l-3.8,9.5c0,0.1-0.1,0.2-0.1,0.3l0,0l-0.2,0.2
		c0,0.1,0,0.1,0,0.1c-0.1,0-0.1,0.1-0.2,0.1h-0.1c-0.1,0.1-0.2,0.2-0.2,0.2l0,0l0,0c-0.1,0-0.2,0-0.2,0.1h-0.1c-0.1,0-0.2,0-0.3,0
		c-0.1,0-0.2,0-0.3,0h-0.1c-0.1,0-0.1-0.1-0.2-0.1c0,0,0,0-0.1,0c-0.1,0-0.2-0.1-0.3-0.2l0,0c-0.1-0.1-0.1-0.1-0.2-0.1v-0.1
		c-0.1-0.1-0.1-0.1-0.2-0.2l0,0c-0.1-0.1-0.1-0.2-0.2-0.3l-7.2-17.9c-0.3-0.8,0-1.8,0.9-2.2c0.8-0.3,1.7,0,2,0.8c0,0,0,0.1,0,0.1
		l5.4,14.3l3.8-9.5c0.2-0.6,0.9-1,1.5-1c0.7,0,1.3,0.4,1.5,1l3.8,9.5l5.7-14.3c0.3-0.8,1.2-1.2,2.1-0.9c0,0,0.1,0,0.1,0
		C141.2,151,141.6,151.9,141.2,152.8z"/>
	<path class="st8" d="M169.3,152.9c3.9,4.4,3.9,11.1,0,15.6c-1.8,2.1-4.3,3.3-7,3.3c-2.7,0-5.4-1.2-7.2-3.3
		c-3.9-4.5-3.9-11.1,0-15.6c1.8-2.1,4.4-3.3,7.2-3.3C165,149.6,167.6,150.8,169.3,152.9z M168.9,160.7c0-2-0.7-3.9-2-5.4
		c-1.1-1.4-2.8-2.2-4.6-2.2c-1.8,0-3.6,0.8-4.7,2.2c-1.3,1.5-2,3.4-2,5.4c0,2,0.7,3.9,2,5.4c1.2,1.4,2.9,2.2,4.7,2.2
		c1.8,0,3.5-0.8,4.6-2.2C168.2,164.6,168.9,162.7,168.9,160.7L168.9,160.7z"/>
	<path class="st8" d="M199.2,169.2c0.3,0.9-0.1,1.8-1,2.1c-0.2,0.1-0.4,0.1-0.6,0.1l0,0c-0.4,0-0.8-0.1-1.1-0.3
		c-0.4-0.3-0.7-0.6-0.9-1.1c-0.5-1.2-0.7-2.4-0.6-3.7c0-0.5-0.1-0.9-0.4-1.3c-0.2-0.4-0.5-0.7-0.9-0.9c-0.5-0.3-1.1-0.6-1.6-0.7
		h-3.4v6.7c0,0.9-0.7,1.7-1.6,1.7c-0.9,0-1.6-0.8-1.6-1.7c0,0,0,0,0,0v-18.2c0-0.9,0.7-1.7,1.6-1.7c0,0,0,0,0,0h5.2
		c3.5,0.1,6.3,3,6.3,6.6c0,0,0,0,0,0c0,1.9-0.8,3.7-2.3,5c0.4,0.3,0.7,0.7,1,1.1c0.6,1,1,2.1,1,3.3c0,0.6,0,1.2,0.1,1.8
		C198.7,168.3,199.1,168.7,199.2,169.2z M195.1,156.8c0.1-1.7-1.3-3.2-3-3.2h-3.6v6.4h3.6C193.8,160,195.2,158.5,195.1,156.8z"/>
	<path class="st8" d="M211.6,170.1v-18c0-0.9,0.7-1.6,1.6-1.6s1.6,0.7,1.6,1.6v8.8l9.5-10c0.6-0.6,1.5-0.7,2.2-0.1
		c0,0,0.1,0.1,0.1,0.1c0.6,0.7,0.6,1.7,0,2.4l-6.4,6.7l6.5,9c0.6,0.7,0.5,1.8-0.2,2.4c-0.3,0.3-0.6,0.4-1,0.4
		c-0.5,0-0.9-0.2-1.2-0.6l-6.3-8.7l-3,3.3v4.4c0,0.9-0.7,1.6-1.6,1.6S211.7,171,211.6,170.1L211.6,170.1L211.6,170.1z"/>
	<path class="st8" d="M115.7,193c0-3.6,2.9-6.5,6.5-6.5c1.5,0,2.9,0.5,4.1,1.4c0.6,0.5,0.7,1.3,0.3,1.9c-0.4,0.6-1.3,0.7-1.9,0.3
		c0,0,0,0,0,0c-0.7-0.5-1.6-0.8-2.4-0.8c-2,0-3.7,1.7-3.7,3.7s1.7,3.7,3.7,3.7c0,0,0,0,0,0c0.9,0,1.7-0.3,2.4-0.8
		c0.6-0.4,1.5-0.3,1.9,0.3c0.4,0.6,0.3,1.4-0.3,1.9c-1.2,0.9-2.6,1.4-4.1,1.4C118.6,199.4,115.7,196.6,115.7,193z"/>
	<path class="st8" d="M147.5,193v5c0,0.8-0.6,1.4-1.4,1.4c-0.6,0-1.2-0.5-1.3-1.1c-1,0.7-2.2,1.1-3.4,1.1c-1.7,0-3.2-0.7-4.4-1.9
		c-1.1-1.2-1.8-2.9-1.8-4.5c0-1.7,0.6-3.3,1.8-4.5c2-2.2,5.4-2.6,7.8-0.8c0.1-0.6,0.7-1.1,1.3-1.1c0.8,0,1.4,0.6,1.4,1.4V193z
		 M144.8,193c0-1-0.3-1.9-1-2.7c-0.6-0.7-1.5-1.1-2.4-1.1c-0.9,0-1.8,0.4-2.4,1.1c-0.7,0.7-1,1.7-1,2.7c0,1,0.3,1.9,1,2.7
		c0.6,0.7,1.5,1,2.4,1c0.9,0,1.8-0.4,2.4-1C144.5,194.9,144.8,194,144.8,193z"/>
	<path class="st8" d="M168.5,191.9v6.1c0,0.7-0.6,1.4-1.3,1.4c0,0,0,0,0,0c-0.7,0-1.3-0.6-1.4-1.4v-6.2c0-1.5-1.2-2.6-2.7-2.6
		c-1.4,0-2.6,1.2-2.6,2.6c0,0,0,0,0,0v6.2c0,0.1,0,0.2,0,0.3c-0.1,0.6-0.7,1.1-1.4,1.1c-0.8,0-1.4-0.6-1.4-1.4c0,0,0,0,0,0v-10.1
		c0-0.7,0.6-1.4,1.3-1.4c0,0,0,0,0,0c0.5,0,1,0.3,1.3,0.8c0.8-0.5,1.8-0.8,2.7-0.8C166.1,186.6,168.5,188.9,168.5,191.9z"/>
	<path class="st8" d="M188.6,188.6l-4.2,10c0,0.1-0.1,0.1-0.1,0.2l0,0l-0.1,0.2l0,0c0,0.1-0.1,0.1-0.1,0.1l0,0
		c0,0.1-0.1,0.1-0.2,0.1h-0.1l0,0c-0.1,0-0.1,0-0.2,0.1h-0.1c-0.1,0-0.2,0-0.2,0c-0.1,0-0.2,0-0.2,0H183c-0.1,0-0.1-0.1-0.2-0.1l0,0
		l0,0c-0.1,0-0.1-0.1-0.2-0.1l0,0c-0.1,0-0.1-0.1-0.1-0.1c0,0,0,0-0.1,0c0-0.1-0.1-0.1-0.1-0.2l0,0c-0.1,0-0.1-0.1-0.1-0.2l-4.2-10
		c-0.3-0.7,0-1.5,0.6-1.8c0.7-0.3,1.5,0,1.8,0.6c0,0,0,0.1,0.1,0.1l3,7l3-7c0.3-0.7,1.1-1,1.7-0.7s1,1.1,0.7,1.7l0,0H188.6z"/>
	<path class="st8" d="M209.1,193v5c0,0.8-0.6,1.3-1.4,1.3c-0.6,0-1.2-0.5-1.3-1.1c-1,0.7-2.2,1.1-3.4,1.1c-1.7,0-3.2-0.7-4.4-1.9
		c-1.1-1.2-1.8-2.9-1.8-4.5c0-1.7,0.6-3.3,1.8-4.5c2-2.2,5.4-2.6,7.8-0.8c0.1-0.7,0.7-1.3,1.5-1.2c0.7,0.1,1.3,0.7,1.2,1.5l0,0V193z
		 M206.4,193c0-1-0.3-1.9-1-2.7c-0.6-0.7-1.5-1.1-2.4-1.1c-0.9,0-1.8,0.4-2.4,1.1c-0.7,0.7-1,1.7-1,2.7c0,1,0.3,1.9,1,2.7
		c0.6,0.6,1.5,1,2.4,1c0.9,0,1.8-0.4,2.4-1C206,194.9,206.4,194,206.4,193z"/>
	<path class="st8" d="M219,195.7c0.5-0.6,1.3-0.7,1.9-0.2c0,0,0,0,0.1,0c0.8,0.7,1.8,1.1,2.8,1.1c0.6,0,1.2-0.2,1.8-0.5
		c0.3-0.2,0.4-0.5,0.5-0.8c0-0.1,0-0.2-0.1-0.3c0-0.1-0.1-0.2-0.3-0.3c-0.6-0.4-1.3-0.6-2-0.7l0,0c-0.8-0.1-1.5-0.4-2.2-0.7
		c-0.7-0.3-1.3-0.8-1.8-1.5c-0.3-0.5-0.5-1-0.4-1.6c0-1.1,0.6-2.2,1.5-2.8c0.9-0.6,2-1,3.2-0.9c1.4,0,2.8,0.5,3.9,1.4
		c0.6,0.4,0.8,1.3,0.4,1.9c-0.4,0.6-1.3,0.8-1.9,0.4c0,0,0,0,0,0c-0.7-0.6-1.5-0.9-2.4-1c-0.6,0-1.1,0.2-1.5,0.5
		c-0.2,0.1-0.4,0.3-0.4,0.6c0,0.1,0,0.1,0,0.2c0.1,0.1,0.2,0.2,0.3,0.3c0.6,0.3,1.2,0.5,1.9,0.6l0,0l0,0c0.8,0.1,1.6,0.4,2.4,0.8
		c0.7,0.3,1.4,0.8,1.8,1.5c0.3,0.5,0.5,1.1,0.5,1.7c0,1.2-0.6,2.3-1.6,3c-1,0.7-2.2,1-3.3,1c-1.7-0.1-3.3-0.7-4.6-1.8
		C218.7,197.1,218.6,196.3,219,195.7z"/>
	<rect id="Frame" class="st9" width="263" height="199.4"/>
</g>
<g id="Beta">
	<g id="BetaTab">
		<g>
			<defs>
				<rect id="SVGID_1_" x="199.3" y="105.6" width="63.4" height="26"/>
			</defs>
			<clipPath id="SVGID_2_">
				<use xlink:href="#SVGID_1_"  style="overflow:visible;"/>
			</clipPath>
			<g class="st10">
				<g>
					<defs>
						<rect id="SVGID_3_" x="199.3" y="105.6" width="63.4" height="26"/>
					</defs>
					<clipPath id="SVGID_4_">
						<use xlink:href="#SVGID_3_"  style="overflow:visible;"/>
					</clipPath>
					<g class="st11">
						<path class="st12" d="M250.8,131.6h-39.5c-6.6,0-12-5.4-11.9-12v-2.1c0-6.6,5.3-11.9,11.9-11.9c0,0,0,0,0,0h39.5
							c6.6,0,12,5.3,12,11.9c0,0,0,0,0,0.1v2.1C262.8,126.2,257.4,131.6,250.8,131.6"/>
					</g>
				</g>
				<g class="st13">
					<path class="st14" d="M223.3,119.1c0.3,0.3,0.4,0.8,0.4,1.3c0,1-0.3,1.6-0.8,2c-0.5,0.4-1.2,0.6-1.9,0.6h-3
						c-0.2,0-0.4-0.1-0.5-0.2c-0.1-0.1-0.2-0.3-0.2-0.5v-6.9c0-0.2,0.1-0.4,0.2-0.5c0.1-0.1,0.3-0.2,0.5-0.2h3
						c1.5,0,2.3,0.7,2.3,2.1c0,0.4-0.1,0.7-0.3,1c-0.2,0.3-0.4,0.5-0.7,0.7C222.7,118.5,223.1,118.7,223.3,119.1z M221.5,116.2
						c-0.2-0.2-0.4-0.2-0.7-0.2h-2v1.9h2c0.2,0,0.5-0.1,0.6-0.2c0.2-0.2,0.3-0.4,0.3-0.6C221.7,116.6,221.7,116.4,221.5,116.2z
						 M221.9,121.3c0.2-0.2,0.3-0.5,0.3-0.9c0-0.5-0.1-0.8-0.4-0.9c-0.2-0.1-0.6-0.2-0.9-0.2h-2.1v2.3h2.2
						C221.4,121.6,221.7,121.5,221.9,121.3z"/>
					<path class="st14" d="M230.4,121.8c0.1,0.1,0.2,0.3,0.2,0.5c0,0.2-0.1,0.4-0.2,0.5c-0.1,0.1-0.3,0.2-0.5,0.2h-4
						c-0.2,0-0.4-0.1-0.5-0.2c-0.1-0.1-0.2-0.3-0.2-0.5v-6.9c0-0.2,0.1-0.4,0.2-0.5c0.1-0.1,0.3-0.2,0.5-0.2h4
						c0.2,0,0.4,0.1,0.5,0.2c0.1,0.1,0.2,0.3,0.2,0.5c0,0.2-0.1,0.4-0.2,0.5c-0.1,0.1-0.3,0.2-0.5,0.2h-3.3v2h2.7
						c0.2,0,0.4,0.1,0.5,0.2c0.1,0.1,0.2,0.3,0.2,0.5c0,0.2-0.1,0.4-0.2,0.5c-0.1,0.1-0.3,0.2-0.5,0.2h-2.7v2.2h3.3
						C230.1,121.6,230.3,121.6,230.4,121.8z"/>
				</g>
				<g class="st13">
					<path class="st14" d="M238,114.7c0.1,0.1,0.2,0.3,0.2,0.5s-0.1,0.4-0.2,0.5s-0.3,0.2-0.5,0.2h-1.9v6.3c0,0.2-0.1,0.4-0.2,0.5
						c-0.2,0.1-0.3,0.2-0.6,0.2s-0.4-0.1-0.6-0.2c-0.1-0.1-0.2-0.3-0.2-0.5v-6.3h-1.9c-0.2,0-0.4-0.1-0.5-0.2
						c-0.1-0.1-0.2-0.3-0.2-0.5c0-0.2,0.1-0.4,0.2-0.5s0.3-0.2,0.5-0.2h5.3C237.7,114.5,237.9,114.6,238,114.7z"/>
				</g>
				<g class="st13">
					<path class="st14" d="M245.6,122.3c0,0.2-0.1,0.4-0.2,0.5s-0.3,0.2-0.5,0.2c-0.1,0-0.3,0-0.4-0.1c-0.1-0.1-0.2-0.2-0.3-0.4
						l-0.6-1.5H240l-0.6,1.5c-0.1,0.2-0.1,0.3-0.3,0.4c-0.1,0.1-0.2,0.1-0.4,0.1c-0.2,0-0.4-0.1-0.5-0.2c-0.1-0.1-0.2-0.3-0.2-0.5
						c0-0.1,0-0.1,0-0.2l3-7.2c0.1-0.2,0.2-0.3,0.3-0.4s0.3-0.1,0.4-0.1c0.1,0,0.3,0,0.4,0.1s0.2,0.2,0.3,0.4l3,7
						C245.5,122.1,245.6,122.2,245.6,122.3z M240.6,119.7h2.4l-1.2-2.8L240.6,119.7z"/>
				</g>
			</g>
		</g>
	</g>
</g>
</svg>
