<?xml version="1.0" encoding="utf-8"?>
<!-- Generator: Adobe Illustrator 24.3.0, SVG Export Plug-In . SVG Version: 6.00 Build 0)  -->
<svg version="1.1" id="Layer_1" xmlns="http://www.w3.org/2000/svg" xmlns:xlink="http://www.w3.org/1999/xlink" x="0px" y="0px"
	 viewBox="0 0 765.4 647.2" style="enable-background:new 0 0 765.4 647.2;" xml:space="preserve">
<style type="text/css">
	.st0{fill:#CCCCCC;}
	.st1{fill:#F2F2F2;}
	.st2{fill:#E6E6E6;}
	.st3{fill:#3F3D56;}
	.st4{fill:#6C63FF;}
</style>
<path class="st0" d="M614.9,169.7l-13-51.3l-18.3-72.1l-1-4.1v0l-7.2-28.5C572.7,4,562.8-1.9,553.1,0.6l-48.2,12.2l-301,76.6
	c-9.7,2.5-15.6,12.4-13.1,22.1l10.4,40.9l26.4,103.8l9.9,39l0.5,2h2.2l-0.5-2l-9.5-37.3v0l-27.5-108.3l-9.8-38.6
	c-2.2-8.6,3-17.3,11.6-19.5L504.8,15l48.8-12.4c8.6-2.2,17.3,3,19.5,11.6l7.7,30.3l1,4.1l17.8,70.1l13,51l0.5,2.1h2.2L614.9,169.7z"
	/>
<circle class="st1" cx="290.9" cy="189.3" r="51.6"/>
<path class="st2" d="M407.8,169.7l2.5,2.1H371c-8.9,0-16,7.2-16,16v122.4l-0.6,29l-25.1-22.4l-2.4,0.6l-18.6-16.4
	c-2.7-2.4-6.3-3.8-9.9-3.8h-48.9l0.8-2l9.8-26.1l55.5-148.2l5.7-15.2c1.2-3.2,4.8-4.8,8-3.6c0.7,0.3,1.3,0.6,1.9,1.1l37.3,32.4
	l22,19.1L407.8,169.7z"/>
<path class="st2" d="M571.1,169.7l2.5,2.1H453.4l0.8-2.1l25.6-67.6c1.2-3.2,4.8-4.8,8-3.6c0.7,0.3,1.3,0.6,1.9,1.1l50.9,43.8
	l2.9,2.5L571.1,169.7z"/>
<path class="st2" d="M617.6,190.7c-9.5,0-18.5,4.4-24.2,12c-10.1-4.4-21.8,0.3-26.2,10.4c-1.1,2.5-1.6,5.2-1.6,7.9H648
	C648,204.2,634.4,190.7,617.6,190.7C617.6,190.7,617.6,190.7,617.6,190.7L617.6,190.7z"/>
<path class="st3" d="M731.4,169.7H371c-8.3,0-15.6,5.7-17.6,13.8v0c-0.4,1.4-0.5,2.9-0.5,4.4v152.3l1.2,1l1,0.9V187.8
	c0-8.9,7.2-16,16-16h360.3c8.9,0,16,7.2,16,16v185.3h1c0.4,0,0.7,0,1.1,0V187.8C749.5,177.8,741.4,169.7,731.4,169.7L731.4,169.7z"
	/>
<circle class="st4" cx="437.3" cy="260.5" r="48.8"/>
<path class="st3" d="M731.8,373.2h-335c-4.1,0-8.1-1.5-11.2-4.2l-7.5-6.6l1.1-1.7l2.1-3l90.3-130l9.3-13.4c2-2.8,5.8-3.5,8.6-1.6
	c0.6,0.4,1.1,0.9,1.6,1.6l28.2,40.6v0l16.6,23.9l39.6,57l60-85.7c2-2.8,5.8-3.5,8.6-1.5c0.6,0.4,1.1,0.9,1.5,1.5l38.5,55l2.2,3.2
	l44.2,63L731.8,373.2z"/>
<path class="st0" d="M552.8,241.3c-11.7,0-22.8,5.5-29.8,14.8c-12.5-5.4-26.9,0.4-32.3,12.9c-1.3,3.1-2,6.4-2,9.7h101.6
	C590.2,258.1,573.5,241.3,552.8,241.3C552.8,241.3,552.8,241.3,552.8,241.3z"/>
<path class="st3" d="M377.9,359.6l-12.4-11l0,0l0,0l0,0c-0.4-0.3-0.8-0.6-1.2-0.9c-0.1-0.1-0.2-0.1-0.3-0.2c-0.1,0-0.1-0.1-0.1-0.1
	c0,0,0,0-0.1,0c-0.3-0.2-0.6-0.5-0.8-0.7c-0.1-0.1-0.3-0.2-0.4-0.3c-0.4-0.3-0.8-0.6-1.1-1c-0.4-0.3-0.8-0.7-1.2-1c0,0,0,0,0,0
	c-0.1-0.1-0.2-0.1-0.2-0.2c-0.4-0.3-0.8-0.7-1.1-1c-0.3-0.3-0.6-0.6-1-0.9c-0.3-0.3-0.6-0.5-0.9-0.8l-0.1-0.1
	c-0.2-0.2-0.4-0.4-0.6-0.6c-0.2-0.2-0.4-0.4-0.6-0.6c-0.2-0.2-0.4-0.4-0.6-0.6l-0.2-0.2l-0.1,0l-1.9-1.7v2.7l1.2,1l1,0.9l20.6,18.1
	l1.9,1.7l0.5,0.4l0.5-0.7l0.7-1L377.9,359.6z M676.6,371.2c0,0.7,0.1,1.3,0.1,2h70.7v-2H676.6z M377.9,359.6l-12.4-11l0,0l0,0l0,0
	c-0.4-0.3-0.8-0.6-1.2-0.9c-0.1-0.1-0.2-0.1-0.3-0.2c-0.1,0-0.1-0.1-0.1-0.1c0,0,0,0-0.1,0c-0.3-0.2-0.6-0.5-0.8-0.7
	c-0.1-0.1-0.3-0.2-0.4-0.3c-0.4-0.3-0.8-0.6-1.1-1c-0.4-0.3-0.8-0.7-1.2-1c0,0,0,0,0,0c-0.1-0.1-0.2-0.1-0.2-0.2
	c-0.4-0.3-0.8-0.7-1.1-1c-0.3-0.3-0.6-0.6-1-0.9c-0.3-0.3-0.6-0.5-0.9-0.8l-0.1-0.1c-0.2-0.2-0.4-0.4-0.6-0.6
	c-0.2-0.2-0.4-0.4-0.6-0.6c-0.2-0.2-0.4-0.4-0.6-0.6l-0.2-0.2l-0.1,0l-1.9-1.7v2.7l1.2,1l1,0.9l20.6,18.1l1.9,1.7l0.5,0.4l0.5-0.7
	l0.7-1L377.9,359.6z M730.4,371.2h-53.8c0,0.7,0.1,1.3,0.1,2h55.1L730.4,371.2z M377.9,359.6l-12.4-11l0,0l0,0l0,0
	c-0.4-0.3-0.8-0.6-1.2-0.9c-0.1-0.1-0.2-0.1-0.3-0.2c-0.1,0-0.1-0.1-0.1-0.1c0,0,0,0-0.1,0c-0.3-0.2-0.6-0.5-0.8-0.7
	c-0.1-0.1-0.3-0.2-0.4-0.3c-0.4-0.3-0.8-0.6-1.1-1c-0.4-0.3-0.8-0.7-1.2-1c0,0,0,0,0,0c-0.1-0.1-0.2-0.1-0.2-0.2
	c-0.4-0.3-0.8-0.7-1.1-1c-0.3-0.3-0.6-0.6-1-0.9c-0.3-0.3-0.6-0.5-0.9-0.8l-0.1-0.1c-0.2-0.2-0.4-0.4-0.6-0.6
	c-0.2-0.2-0.4-0.4-0.6-0.6c-0.2-0.2-0.4-0.4-0.6-0.6l-0.2-0.2l-0.1,0l-1.9-1.7v2.7l1.2,1l1,0.9l20.6,18.1l1.9,1.7l0.5,0.4l0.5-0.7
	l0.7-1L377.9,359.6z M329.3,316.7l-19.6-17.3c-3.1-2.7-7.1-4.3-11.2-4.2h-58.8l0.5,2h58.3c3.7,0,7.2,1.3,9.9,3.8l18.6,16.4
	l25.9,22.8v-2.7L329.3,316.7z M749.6,371.2c-0.4,0-0.7,0-1.1,0H396.7c-3.4,0-6.7-1.1-9.3-3.2c-0.2-0.2-0.4-0.3-0.6-0.5l-7-6.2
	l-0.7-0.6l-1.2-1.1l-12.4-11l0,0l0,0l0,0l-8.3-7.3l-2.1-1.8l-0.2-0.1l-0.1,0l-1.9-1.7l-23.5-20.7l-19.6-17.3
	c-3.1-2.7-7.1-4.3-11.2-4.2h-86c-9.4,0-17,7.6-17,17v318c0,9.4,7.6,17,17,17h536c9.4,0,17-7.6,17-17v-242
	C765.4,379.2,758.5,371.8,749.6,371.2L749.6,371.2z M763.4,630.2c0,8.3-6.7,15-15,15h-536c-8.3,0-15-6.7-15-15v-318
	c0-8.3,6.7-15,15-15h86c3.7,0,7.2,1.3,9.9,3.8l18.6,16.4l25.9,22.8l1.2,1l1,0.9l20.6,18.1l1.9,1.7l0.5,0.4l7.5,6.6
	c3.1,2.7,7.1,4.2,11.2,4.2h351.7c0.4,0,0.7,0,1.1,0c7.8,0.6,13.9,7.1,13.9,14.9V630.2z M377.9,359.6l-12.4-11l0,0l0,0l0,0
	c-0.4-0.3-0.8-0.6-1.2-0.9c-0.1-0.1-0.2-0.1-0.3-0.2c-0.1,0-0.1-0.1-0.1-0.1c0,0,0,0-0.1,0c-0.3-0.2-0.6-0.5-0.8-0.7
	c-0.1-0.1-0.3-0.2-0.4-0.3c-0.4-0.3-0.8-0.6-1.1-1c-0.4-0.3-0.8-0.7-1.2-1c0,0,0,0,0,0c-0.1-0.1-0.2-0.1-0.2-0.2
	c-0.4-0.3-0.8-0.7-1.1-1c-0.3-0.3-0.6-0.6-1-0.9c-0.3-0.3-0.6-0.5-0.9-0.8l-0.1-0.1c-0.2-0.2-0.4-0.4-0.6-0.6
	c-0.2-0.2-0.4-0.4-0.6-0.6c-0.2-0.2-0.4-0.4-0.6-0.6l-0.2-0.2l-0.1,0l-1.9-1.7v2.7l1.2,1l1,0.9l20.6,18.1l1.9,1.7l0.5,0.4l0.5-0.7
	l0.7-1L377.9,359.6z M676.6,371.2c0,0.7,0.1,1.3,0.1,2h70.7v-2H676.6z M377.9,359.6l-12.4-11l0,0l0,0l0,0c-0.4-0.3-0.8-0.6-1.2-0.9
	c-0.1-0.1-0.2-0.1-0.3-0.2c-0.1,0-0.1-0.1-0.1-0.1c0,0,0,0-0.1,0c-0.3-0.2-0.6-0.5-0.8-0.7c-0.1-0.1-0.3-0.2-0.4-0.3
	c-0.4-0.3-0.8-0.6-1.1-1c-0.4-0.3-0.8-0.7-1.2-1c0,0,0,0,0,0c-0.1-0.1-0.2-0.1-0.2-0.2c-0.4-0.3-0.8-0.7-1.1-1
	c-0.3-0.3-0.6-0.6-1-0.9c-0.3-0.3-0.6-0.5-0.9-0.8l-0.1-0.1c-0.2-0.2-0.4-0.4-0.6-0.6c-0.2-0.2-0.4-0.4-0.6-0.6
	c-0.2-0.2-0.4-0.4-0.6-0.6l-0.2-0.2l-0.1,0l-1.9-1.7v2.7l1.2,1l1,0.9l20.6,18.1l1.9,1.7l0.5,0.4l0.5-0.7l0.7-1L377.9,359.6z
	 M377.9,359.6l-12.4-11l0,0l0,0l0,0c-0.4-0.3-0.8-0.6-1.2-0.9c-0.1-0.1-0.2-0.1-0.3-0.2c-0.1,0-0.1-0.1-0.1-0.1c0,0,0,0-0.1,0
	c-0.3-0.2-0.6-0.5-0.8-0.7c-0.1-0.1-0.3-0.2-0.4-0.3c-0.4-0.3-0.8-0.6-1.1-1c-0.4-0.3-0.8-0.7-1.2-1c0,0,0,0,0,0
	c-0.1-0.1-0.2-0.1-0.2-0.2c-0.4-0.3-0.8-0.7-1.1-1c-0.3-0.3-0.6-0.6-1-0.9c-0.3-0.3-0.6-0.5-0.9-0.8l-0.1-0.1
	c-0.2-0.2-0.4-0.4-0.6-0.6c-0.2-0.2-0.4-0.4-0.6-0.6c-0.2-0.2-0.4-0.4-0.6-0.6l-0.2-0.2l-0.1,0l-1.9-1.7v2.7l1.2,1l1,0.9l20.6,18.1
	l1.9,1.7l0.5,0.4l0.5-0.7l0.7-1L377.9,359.6z M730.4,371.2h-53.8c0,0.7,0.1,1.3,0.1,2h55.1L730.4,371.2z"/>
<g transform="translate(-217.28137 -126.41354)">
	<path class="st1" d="M938.3,761.1H452.1c-8.8,0-15.9-7.1-15.9-15.9V456.7c0-8.8,7.1-15.9,15.9-15.9c7.8,0,14.1,6.3,14.1,14.1v271.3
		c0,8.2,6.7,14.9,14.9,14.9h455.5c4.7-0.1,8.7,3.1,9.9,7.6c1.3,4.3-0.5,8.9-4.3,11.2C941.1,760.6,939.7,761.1,938.3,761.1
		L938.3,761.1z"/>
</g>
</svg>
