<?xml version="1.0" encoding="utf-8"?>
<!-- Generator: Adobe Illustrator 26.0.1, SVG Export Plug-In . SVG Version: 6.00 Build 0)  -->
<svg version="1.1" id="Layer_1" xmlns="http://www.w3.org/2000/svg" xmlns:xlink="http://www.w3.org/1999/xlink" x="0px" y="0px"
	 viewBox="0 0 70 70" style="enable-background:new 0 0 70 70;" xml:space="preserve">
<style type="text/css">
	.st0{fill:#FFFFFF;}
</style>
<path class="st0" d="M12.3,6.6c-3.1,0-5.7,2.5-5.7,5.7V35h5.7V23.6h5.7V35h5.7V12.3c0-3.1-2.5-5.7-5.7-5.7H12.3 M12.3,12.3h5.7v5.7
	h-5.7 M63.4,44.9v-4.3c0-3.1-2.5-5.7-5.7-5.7H46.4v28.4h11.4c3.1,0,5.7-2.5,5.7-5.7v-4.3c-0.1-2.3-1.9-4.2-4.3-4.3
	C61.5,49.2,63.4,47.3,63.4,44.9 M57.7,57.7h-5.7v-5.7h5.7V57.7 M57.7,46.4h-5.7v-5.7h5.7 M17.3,62.3l-4.5-3.5L52.7,7.7l4.5,3.5
	L17.3,62.3z"/>
</svg>
