<?xml version="1.0" encoding="utf-8"?>
<!-- Generator: Adobe Illustrator 26.0.1, SVG Export Plug-In . SVG Version: 6.00 Build 0)  -->
<svg version="1.1" id="Layer_1" xmlns="http://www.w3.org/2000/svg" xmlns:xlink="http://www.w3.org/1999/xlink" x="0px" y="0px"
	 viewBox="0 0 60 60" style="enable-background:new 0 0 60 60;" xml:space="preserve">
<style type="text/css">
	.st0{fill:#FFFFFF;}
</style>
<g id="Menu_-_CAT">
	<circle class="st0" cx="11.1" cy="11.1" r="11.1"/>
	<path class="st0" d="M11.1,0C5,0,0,5,0,11.2c0,2.9,1.2,5.8,3.2,7.8L19,3.3C16.9,1.2,14.1,0,11.1,0z"/>
	<circle class="st0" cx="11.1" cy="48.9" r="11.1"/>
	<path class="st0" d="M11.1,37.7C5,37.7,0,42.7,0,48.9c0,2.9,1.2,5.8,3.2,7.8L19,41C16.9,38.9,14.1,37.7,11.1,37.7z"/>
	<circle class="st0" cx="48.9" cy="48.9" r="11.1"/>
	<path class="st0" d="M48.9,37.7c-6.2,0-11.1,5-11.1,11.2c0,2.9,1.2,5.8,3.2,7.8L56.7,41C54.7,38.9,51.8,37.7,48.9,37.7z"/>
	<circle class="st0" cx="48.9" cy="11.1" r="11.1"/>
	<path class="st0" d="M48.9,0c-6.2,0-11.1,5-11.1,11.2c0,2.9,1.2,5.7,3.2,7.8L56.7,3.3C54.7,1.2,51.8,0,48.9,0z"/>
</g>
</svg>
