<?xml version="1.0" encoding="utf-8"?>
<!-- Generator: Adobe Illustrator 26.0.1, SVG Export Plug-In . SVG Version: 6.00 Build 0)  -->
<svg version="1.1" id="Layer_1" xmlns="http://www.w3.org/2000/svg" xmlns:xlink="http://www.w3.org/1999/xlink" x="0px" y="0px"
	 viewBox="0 0 70 70" style="enable-background:new 0 0 70 70;" xml:space="preserve">
<style type="text/css">
	.st0{fill:#FFFFFF;}
</style>
<g>
	<path class="st0" d="M51.8,20.2c0,1.6-0.2,3-0.6,4.3c-0.4,1.3-1,2.4-1.7,3.4s-1.5,2-2.4,2.9c-0.9,0.9-1.8,1.7-2.8,2.6
		c-0.9,0.8-1.9,1.7-2.8,2.6c-0.9,0.9-1.7,1.8-2.4,2.8c-0.7,1-1.3,2.1-1.7,3.4c-0.4,1.2-0.6,2.6-0.6,4.2L29,47.1
		c0-2.2,0.2-4.2,0.6-5.9c0.4-1.7,1-3.2,1.7-4.5c0.7-1.3,1.5-2.5,2.4-3.5c0.9-1,1.8-1.9,2.8-2.8c0.9-0.8,1.9-1.6,2.8-2.4
		c0.9-0.8,1.7-1.5,2.4-2.3c0.7-0.8,1.2-1.7,1.7-2.6c0.4-0.9,0.6-2,0.6-3.2c0-1.3-0.3-2.4-0.8-3.4s-1.2-1.7-2.1-2.3
		c-0.9-0.6-1.9-1-3.1-1.3c-1.2-0.3-2.4-0.4-3.8-0.4c-1,0-1.9,0.1-3,0.4c-1,0.3-2,0.7-3,1.2c-1,0.5-1.9,1.2-2.8,1.9
		c-0.9,0.8-1.7,1.6-2.4,2.5l-5-4.1c1.2-1.7,2.6-3,4-4.1c1.4-1.1,2.9-1.9,4.4-2.5c1.5-0.6,3-1,4.4-1.2c1.5-0.2,2.9-0.3,4.2-0.3
		c2.1,0,4.2,0.3,6.2,0.8c2,0.6,3.8,1.4,5.3,2.6c1.5,1.1,2.8,2.6,3.7,4.4S51.8,17.7,51.8,20.2z M28.4,59.3c0-0.6,0.1-1.2,0.4-1.8
		c0.2-0.6,0.6-1,1-1.5c0.4-0.4,0.9-0.7,1.5-1c0.6-0.2,1.1-0.4,1.8-0.4c0.6,0,1.2,0.1,1.8,0.4c0.6,0.2,1,0.6,1.5,1
		c0.4,0.4,0.7,0.9,1,1.5c0.2,0.6,0.4,1.1,0.4,1.8s-0.1,1.2-0.4,1.8c-0.2,0.6-0.6,1.1-1,1.5c-0.4,0.4-0.9,0.7-1.4,1
		c-0.6,0.3-1.1,0.4-1.8,0.4c-0.7,0-1.3-0.1-1.8-0.4c-0.6-0.3-1-0.6-1.5-1c-0.4-0.4-0.7-0.9-1-1.5C28.5,60.5,28.4,59.9,28.4,59.3z"/>
</g>
</svg>
