<?xml version="1.0" encoding="utf-8"?>
<!-- Generator: Adobe Illustrator 26.0.1, SVG Export Plug-In . SVG Version: 6.00 Build 0)  -->
<svg version="1.1" id="Layer_1" xmlns="http://www.w3.org/2000/svg" xmlns:xlink="http://www.w3.org/1999/xlink" x="0px" y="0px"
	 viewBox="0 0 70 70" style="enable-background:new 0 0 70 70;" xml:space="preserve">
<style type="text/css">
	.st0{fill:#FFFFFF;}
</style>
<g id="Menu_-_Sociogram">
	<rect x="13.8" y="30" transform="matrix(0.5461 -0.8377 0.8377 0.5461 -13.9036 37.3294)" class="st0" width="27.5" height="3"/>
	<rect x="41" y="17.8" transform="matrix(0.8376 -0.5462 0.5462 0.8376 -10.3063 28.3281)" class="st0" width="3" height="27.5"/>
	<rect x="20" y="42" class="st0" width="30" height="3"/>
	<path class="st0" d="M35,4c17.1,0,31,13.9,31,31S52.1,66,35,66S4,52.1,4,35S17.9,4,35,4 M35,0C15.7,0,0,15.7,0,35s15.7,35,35,35
		s35-15.7,35-35S54.3,0,35,0z"/>
	<circle class="st0" cx="35" cy="20.5" r="7.5"/>
	<path class="st0" d="M35,13c-4.1,0-7.5,3.4-7.5,7.5c0,2,0.8,3.9,2.2,5.3l10.6-10.6C38.9,13.8,37,13,35,13z"/>
	<circle class="st0" cx="20.5" cy="43.5" r="7.5"/>
	<path class="st0" d="M20.5,36c-4.1,0-7.5,3.4-7.5,7.5c0,2,0.8,3.9,2.2,5.3l10.6-10.6C24.4,36.8,22.5,36,20.5,36z"/>
	<circle class="st0" cx="49.5" cy="43.5" r="7.5"/>
	<path class="st0" d="M49.5,36c-4.1,0-7.5,3.4-7.5,7.5c0,2,0.8,3.9,2.2,5.3l10.6-10.6C53.4,36.8,51.5,36,49.5,36z"/>
</g>
</svg>
