<?xml version="1.0" encoding="utf-8"?>
<!-- Generator: Adobe Illustrator 26.0.1, SVG Export Plug-In . SVG Version: 6.00 Build 0)  -->
<svg version="1.1" id="Layer_1" xmlns="http://www.w3.org/2000/svg" xmlns:xlink="http://www.w3.org/1999/xlink" x="0px" y="0px"
	 viewBox="0 0 70 70" style="enable-background:new 0 0 70 70;" xml:space="preserve">
<style type="text/css">
	.st0{fill:#FFFFFF;}
	.st1{fill:#F2F6F6;}
</style>
<g id="Menu_-_Map">
	<polygon class="st0" points="60,38 10,38 0,70 70,70 	"/>
	<polygon class="st0" points="10,38 0,70 28,70 60,38 	"/>
	<path class="st1" d="M48.6,5.4l-8,8c-1.6-1.3-3.5-2-5.6-2c-4.9,0-8.9,4-8.9,8.9c0,2,0.7,4,2,5.6L20,34.2l-0.4-0.5
		c-2.9-3.9-4.6-8.6-4.6-13.4C15,9.2,23.9,0.1,35,0C40,0,44.9,2,48.6,5.4"/>
	<path class="st1" d="M55,20.3c0,4.9-1.6,9.6-4.6,13.4c-1.8,2.4-3.7,4.8-5.4,7.2c-3.6,4.7-6.4,9.9-8.3,15.5
		c-0.1,0.4-0.4,0.6-0.8,0.6h-1.7c-0.4,0-0.7-0.2-0.8-0.6c-2-5.6-4.9-10.8-8.4-15.5c-1.6-2.2-3.3-4.5-4.9-6.8l8.1-8.2
		c3.1,3.8,8.7,4.4,12.5,1.4S45,18.7,42,14.9c-0.4-0.5-0.9-1-1.4-1.4l8-8C52.7,9.3,55,14.7,55,20.3"/>
</g>
</svg>
