<?xml version="1.0" encoding="utf-8"?>
<!-- Generator: Adobe Illustrator 26.0.1, SVG Export Plug-In . SVG Version: 6.00 Build 0)  -->
<svg version="1.1" id="Layer_1" xmlns="http://www.w3.org/2000/svg" xmlns:xlink="http://www.w3.org/1999/xlink" x="0px" y="0px"
	 viewBox="0 0 60 60" style="enable-background:new 0 0 60 60;" xml:space="preserve">
<style type="text/css">
	.st0{fill:#FFFFFF;}
</style>
<g id="Menu_-_Default_Interface">
	<rect x="5.1" class="st0" width="12" height="60"/>
	<rect y="5.1" class="st0" width="9.4" height="49.7"/>
	<rect x="12" y="5.1" class="st0" width="10.3" height="49.7"/>
	<polygon class="st0" points="22.3,54.9 12,54.9 12,27.4 22.3,17.1 	"/>
	<circle class="st0" cx="17.1" cy="5.1" r="5.1"/>
	<circle class="st0" cx="5.1" cy="5.1" r="5.1"/>
	<circle class="st0" cx="5.1" cy="54.9" r="5.1"/>
	<circle class="st0" cx="17.1" cy="54.9" r="5.1"/>
	<polygon class="st0" points="17.1,60 5.1,60 5.1,34.3 17.1,22.3 	"/>
	<polygon class="st0" points="9.4,54.9 0,54.9 0,39.4 9.4,30 	"/>
	<circle class="st0" cx="48.9" cy="48.9" r="11.1"/>
	<path class="st0" d="M48.9,37.7c-6.2,0-11.1,5-11.1,11.2c0,2.9,1.2,5.8,3.2,7.8L56.7,41C54.7,38.9,51.8,37.7,48.9,37.7z"/>
	<circle class="st0" cx="48.9" cy="11.1" r="11.1"/>
	<path class="st0" d="M48.9,0c-6.2,0-11.1,5-11.1,11.2c0,2.9,1.2,5.7,3.2,7.8L56.7,3.3C54.7,1.2,51.8,0,48.9,0z"/>
</g>
</svg>
