<?xml version="1.0" encoding="utf-8"?>
<!-- Generator: Adobe Illustrator 26.0.1, SVG Export Plug-In . SVG Version: 6.00 Build 0)  -->
<svg version="1.1" id="Layer_1" xmlns="http://www.w3.org/2000/svg" xmlns:xlink="http://www.w3.org/1999/xlink" x="0px" y="0px"
	 viewBox="0 0 70 70" style="enable-background:new 0 0 70 70;" xml:space="preserve">
<style type="text/css">
	.st0{fill:#FFFFFF;}
</style>
<path class="st0" d="M12.5,49.1V26.6H6.9v-5.6h11.2v28.1H12.5 M63.1,43.4c0,3.1-2.5,5.6-5.6,5.6H46.2v-5.6h11.2v-5.6h-5.6v-5.6h5.6
	v-5.6H46.2v-5.6h11.2c3.1,0,5.6,2.5,5.6,5.6v4.2c0,2.3-1.9,4.2-4.2,4.2c2.3,0,4.2,1.9,4.2,4.2V43.4 M40.6,43.4v5.6H23.8V37.8
	c0-3.1,2.5-5.6,5.6-5.6H35v-5.6H23.8v-5.6H35c3.1,0,5.6,2.5,5.6,5.6v5.6c0,3.1-2.5,5.6-5.6,5.6h-5.6v5.6H40.6z"/>
</svg>
