<?xml version="1.0" encoding="utf-8"?>
<!-- Generator: Adobe Illustrator 26.0.1, SVG Export Plug-In . SVG Version: 6.00 Build 0)  -->
<svg version="1.1" id="Layer_1" xmlns="http://www.w3.org/2000/svg" xmlns:xlink="http://www.w3.org/1999/xlink" x="0px" y="0px"
	 viewBox="0 0 70 60" style="enable-background:new 0 0 70 60;" xml:space="preserve">
<style type="text/css">
	.st0{fill:#FFFFFF;}
</style>
<g id="Menu_-_ORD">
	<polygon class="st0" points="63.7,0 57.5,9.4 70,9.4 	"/>
	<rect x="62.2" y="8" class="st0" width="3" height="52"/>
	<rect x="19" y="27" class="st0" width="12" height="20"/>
	<circle class="st0" cx="25" cy="27" r="6"/>
	<circle class="st0" cx="25" cy="54" r="6"/>
	<rect x="19" y="42" class="st0" width="12" height="12"/>
	<polygon class="st0" points="31,42 19,42 31,30.3 	"/>
	<rect y="39" class="st0" width="12" height="12"/>
	<circle class="st0" cx="6" cy="39" r="6"/>
	<circle class="st0" cx="6" cy="54" r="6"/>
	<polygon class="st0" points="12,54 0,54 0,51 3.1,48 12,48 	"/>
	<polygon class="st0" points="12,51 0,51 12,39.3 	"/>
	<rect x="38" y="16" class="st0" width="12" height="31"/>
	<circle class="st0" cx="44" cy="16" r="6"/>
	<circle class="st0" cx="44" cy="54" r="6"/>
	<rect x="38" y="34.2" class="st0" width="12" height="19.8"/>
	<polygon class="st0" points="50,34.2 38,34.2 50,22.5 	"/>
</g>
</svg>
