<?xml version="1.0" encoding="utf-8"?>
<!-- Generator: Adobe Illustrator 26.0.1, SVG Export Plug-In . SVG Version: 6.00 Build 0)  -->
<svg version="1.1" id="Layer_1" xmlns="http://www.w3.org/2000/svg" xmlns:xlink="http://www.w3.org/1999/xlink" x="0px" y="0px"
	 viewBox="0 0 70 70" style="enable-background:new 0 0 70 70;" xml:space="preserve">
<style type="text/css">
	.st0{fill:#FFFFFF;}
</style>
<path class="st0" d="M70,35l-3.2-3.2l0,0l-12-12c0,0,0,0,0,0c-0.9-0.9-2.3-0.9-3.2,0s-0.9,2.3,0,3.2c0,0,0,0,0,0l0,0l9.7,9.7H8.7
	l9.7-9.7c0,0,0,0,0,0c0.9-0.9,0.8-2.3,0-3.2s-2.3-0.9-3.2,0c0,0,0,0,0,0l0,0l-12,12l0,0L0,35l0,0l0,0l3.2,3.2l0,0l12,12c0,0,0,0,0,0
	c0.9,0.9,2.3,0.9,3.2,0s0.9-2.3,0-3.2c0,0,0,0,0,0l0,0l-9.7-9.7h52.6L51.6,47c0,0,0,0,0,0c-0.9,0.9-0.8,2.3,0,3.2s2.3,0.9,3.2,0
	c0,0,0,0,0,0l0,0l12-12l0,0L70,35L70,35L70,35z"/>
</svg>
