<?xml version="1.0" encoding="utf-8"?>
<!-- Generator: Adobe Illustrator 26.0.1, SVG Export Plug-In . SVG Version: 6.00 Build 0)  -->
<svg version="1.1" id="Layer_1" xmlns="http://www.w3.org/2000/svg" xmlns:xlink="http://www.w3.org/1999/xlink" x="0px" y="0px"
	 viewBox="0 0 70 70" style="enable-background:new 0 0 70 70;" xml:space="preserve">
<style type="text/css">
	.st0{fill:#FFFFFF;}
</style>
<path class="st0" d="M49.7,20.3h14.7v29.4H49.7v5.9c0,1.6,1.3,2.9,2.9,2.9h5.9v5.9h-7.3c-1.6,0-4.4-1.3-4.4-2.9
	c0,1.6-2.8,2.9-4.4,2.9H35v-5.9h5.9c1.6,0,2.9-1.3,2.9-2.9V14.5c0-1.6-1.3-2.9-2.9-2.9H35V5.6h7.3c1.6,0,4.4,1.3,4.4,2.9
	c0-1.6,2.8-2.9,4.4-2.9h7.3v5.9h-5.9c-1.6,0-2.9,1.3-2.9,2.9V20.3 M5.6,20.3h32.3v5.9H11.5v17.6h26.4v5.9H5.6V20.3 M58.5,43.8V26.2
	h-8.8v17.6H58.5z"/>
</svg>
