<svg xmlns="http://www.w3.org/2000/svg" xmlns:xlink="http://www.w3.org/1999/xlink" height="24" width="24"
	 viewBox="0 0 24 24">
<path fill-rule="evenodd" fill="#6d6f76" clip-rule="evenodd" d="M22,18c0,1.1-0.9,2-2,2h-9c-1.1,0-2-0.9-2-2v-2c0-0.6,0.4-1,1-1c0.6,0,1,0.4,1,1v2h9V6h-9v2c0,0.6-0.4,1-1,1
	C9.4,9,9,8.6,9,8V6c0-1.1,0.9-2,2-2h9c1.1,0,2,0.9,2,2V18z M6.7,15.7c-0.4,0.4-1,0.4-1.4,0l-3-3c-0.4-0.4-0.4-1,0-1.4l3-3
	c0.4-0.4,1-0.4,1.4,0c0.4,0.4,0.4,1,0,1.4L5.4,11H15c0.6,0,1,0.4,1,1s-0.4,1-1,1H5.4l1.3,1.3C7.1,14.7,7.1,15.3,6.7,15.7z"/>
</svg>
