<svg xmlns="http://www.w3.org/2000/svg" xmlns:xlink="http://www.w3.org/1999/xlink" width="482.33" height="408.69" viewBox="0 0 482.33 408.69"><g id="Layer_2" data-name="Layer 2"><g id="Create_Button" data-name="Create Button"><g style="clip-path:url(#clip-path)"><circle cx="388.03" cy="25.66" r="7.65" style="fill:#f1f1f1"/><circle cx="342.91" cy="321.8" r="7.65" style="fill:#f1f1f1"/><circle cx="152.57" cy="99.31" r="7.65" style="fill:#f1f1f1"/><ellipse cx="81.43" cy="396.76" rx="81.43" ry="11.93" style="fill:#f1f1f1"/><path d="M369,335.48l20.44-6.4a74.85,74.85,0,0,0-7.63-24.37l-20.45,6.4A45.92,45.92,0,0,1,369,335.48Z" transform="translate(-244.53 -24.83)" style="fill:#777"/><circle cx="75.31" cy="138.14" r="19.09" style="fill:#303030"/><polygon points="54.72 377.31 51.09 392.87 59.9 392.87 63.53 375.24 54.72 377.31" style="fill:#757575"/><polygon points="97.25 377.31 97.25 391.83 106.06 392.87 106.06 377.31 97.25 377.31" style="fill:#757575"/><path d="M296.65,237.21s1,22.3,2.08,23.86,10.37,23.86,10.37,23.86l4.67-14.52s-7.26-11.93-6.23-18.68a77.41,77.41,0,0,0,.39-15Z" transform="translate(-244.53 -24.83)" style="fill:#757575"/><circle cx="81.69" cy="143.92" r="14.52" style="fill:#757575"/><path d="M314.29,170.31s.51,20.74-3.12,23.86,20.75.51,20.75.51-5.19-14.52-1-17.63S314.29,170.31,314.29,170.31Z" transform="translate(-244.53 -24.83)" style="fill:#757575"/><path d="M333.48,193.65s-3.12-5.71-7.27-5.19-17.63,1.56-18.15,2.59-2.07,4.67-3.11,5.71-8.82,2.59-9.34,8.82,18.68,44.08,18.68,44.08-2.6,8.82-2.08,10.89-2.59,8.3-2.07,10.89-7.78,18.16-3.63,38.38V342.5s-14,56.53-9.86,60.68,18.15,1.55,20.75,0,13.48-79.87,13.48-79.87l5.19-26.45.52,58.08s-1,48.76,2.59,50.31,17.63,2.08,18.67-1c.81-2.42,4.77-67,6.48-95.3a106.05,106.05,0,0,0-2.28-29.14c-2.16-9.79-5.3-21.29-8.87-26C346.44,245,342.29,217,342.29,217l8.82-16.08s-5.19-5.19-8.3-5.19S333.48,193.65,333.48,193.65Z" transform="translate(-244.53 -24.83)" style="fill:#303030"/><path d="M298.73,202,296,203.81s-1.93,33.4-.38,35.48,12.38,1.06,13.19-.77S298.73,202,298.73,202Z" transform="translate(-244.53 -24.83)" style="fill:#303030"/><path d="M341.25,233.06s.52,21.79,3.64,28,14.52,32.16,14.52,32.16-.67,28.54,5.11,21.53,2.15-23.61,2.15-23.61l-9.86-38.38s-5.18-17.11-4.66-22.3S341.25,233.06,341.25,233.06Z" transform="translate(-244.53 -24.83)" style="fill:#757575"/><path d="M350.59,408.26s.52-.41,2.07,1.14,5.71,3.63,5.19,9.34-3.63,6.74-3.63,6.74v-1.56h-1.56v2.6s-2.59,8.29-14.52,3.11a26.82,26.82,0,0,1,0-6.74c.52-2.6.52-15,2.08-14.53s5.7,1,6.74,3.12S351.11,412.82,350.59,408.26Z" transform="translate(-244.53 -24.83)" style="fill:#303030"/><path d="M297.17,408.78s-.52-.42-2.07,1.14-5.71,3.63-5.19,9.34,3.63,6.74,3.63,6.74v-1.56h1.56V427s2.59,8.3,14.52,3.12a26.88,26.88,0,0,0,0-6.75c-.52-2.59-.52-15-2.08-14.52s-5.7,1-6.74,3.11S296.65,413.34,297.17,408.78Z" transform="translate(-244.53 -24.83)" style="fill:#303030"/><path d="M343.85,199.35l7.26,1.56s0,11.41,2.07,16.08,5.71,15.56,4.15,16.07-16.08,7.78-17.11,3.63S336.59,199.35,343.85,199.35Z" transform="translate(-244.53 -24.83)" style="fill:#303030"/><circle cx="54.63" cy="113.01" r="19.09" style="fill:#303030"/><path d="M282.7,153.65a19.07,19.07,0,0,0,29.47-10,19.09,19.09,0,1,1-37.88-4.76,18.72,18.72,0,0,1,.65-3.06A19.08,19.08,0,0,0,282.7,153.65Z" transform="translate(-244.53 -24.83)" style="fill:#303030"/><circle cx="70.22" cy="141.32" r="14" style="fill:#303030"/><ellipse cx="81.99" cy="136.07" rx="12.41" ry="9.7" style="fill:#303030"/><ellipse cx="85.3" cy="146.01" rx="2.35" ry="4.17" style="fill:#757575"/><rect x="444.58" y="43.96" width="222.5" height="276.95" transform="translate(-23.29 637.49) rotate(-73.29)" style="fill:#f1f1f1"/><line x1="316.97" y1="73.59" x2="379.8" y2="98.99" style="fill:none;stroke:#404040;stroke-miterlimit:10;stroke-width:2px"/><polygon points="318.57 78.81 319.51 78.37 317.34 73.74 322.12 71.92 321.75 70.95 315.93 73.17 318.57 78.81" style="fill:#404040"/><polygon points="375.02 101.63 374.65 100.66 379.43 98.84 377.26 94.2 378.2 93.77 380.85 99.41 375.02 101.63" style="fill:#404040"/><circle cx="348.39" cy="86.29" r="5.71" style="fill:#404040"/><line x1="312.19" y1="249.65" x2="370.07" y2="214.41" style="fill:none;stroke:#404040;stroke-miterlimit:10;stroke-width:2px"/><polygon points="317.33 251.48 317.54 250.47 312.53 249.44 313.92 244.52 312.92 244.24 311.23 250.23 317.33 251.48" style="fill:#404040"/><polygon points="369.34 219.82 368.34 219.53 369.73 214.61 364.72 213.59 364.93 212.57 371.03 213.82 369.34 219.82" style="fill:#404040"/><circle cx="341.13" cy="232.03" r="5.71" style="fill:#404040"/><line x1="239.46" y1="137.98" x2="239.48" y2="205.75" style="fill:none;stroke:#404040;stroke-miterlimit:10;stroke-width:2px"/><polygon points="235.22 141.42 235.98 142.13 239.46 138.38 242.95 142.13 243.71 141.42 239.46 136.86 235.22 141.42" style="fill:#404040"/><polygon points="235.24 202.31 236 201.6 239.48 205.35 242.97 201.6 243.72 202.31 239.48 206.87 235.24 202.31" style="fill:#404040"/><circle cx="239.47" cy="171.86" r="5.71" style="fill:#404040"/><rect x="191.38" width="94.39" height="117.21" style="fill:#404040"/><path d="M477.2,68.47H455.78a75.07,75.07,0,0,1,0-25.55H477.2A46,46,0,0,0,477.2,68.47Z" transform="translate(-244.53 -24.83)" style="fill:#979797"/><path d="M489,81.42h21.43a75,75,0,0,0,0-25.54H489A45.83,45.83,0,0,1,489,81.42Z" transform="translate(-244.53 -24.83)" style="fill:#777"/><path d="M468.78,124H490.2a75,75,0,0,0,0-25.54H468.78A46,46,0,0,1,468.78,124Z" transform="translate(-244.53 -24.83)" style="fill:#777"/><rect x="387.94" y="111.51" width="94.39" height="117.21" style="fill:#404040"/><rect x="401.43" y="136.4" width="67.42" height="3.11" style="fill:#777"/><rect x="401.43" y="147.29" width="67.42" height="3.11" style="fill:#777"/><rect x="401.43" y="158.18" width="67.42" height="3.11" style="fill:#777"/><rect x="401.43" y="169.08" width="67.42" height="3.11" style="fill:#777"/><rect x="401.43" y="179.97" width="67.42" height="3.11" style="fill:#777"/><rect x="417.5" y="191.38" width="35.27" height="12.45" style="fill:#777"/><rect x="199.68" y="231.83" width="94.39" height="117.21" style="fill:#404040"/><rect x="213.31" y="297.08" width="67.42" height="3.11" style="fill:#777"/><rect x="213.31" y="307.97" width="67.42" height="3.11" style="fill:#777"/><rect x="213.31" y="318.86" width="67.42" height="3.11" style="fill:#777"/><rect x="213.31" y="329.75" width="67.42" height="3.11" style="fill:#777"/><path d="M478.5,298.38H457.08a74.51,74.51,0,0,1,0-25.54H478.5A45.83,45.83,0,0,0,478.5,298.38Z" transform="translate(-244.53 -24.83)" style="fill:#777;opacity:0.30000001192092896;isolation:isolate"/><rect x="242.88" y="250.4" width="39.42" height="2.59" style="fill:#777;opacity:0.30000001192092896;isolation:isolate"/><rect x="242.88" y="259.74" width="39.42" height="2.59" style="fill:#777;opacity:0.30000001192092896;isolation:isolate"/><rect x="242.88" y="269.07" width="39.42" height="2.59" style="fill:#777;opacity:0.30000001192092896;isolation:isolate"/><rect x="242.88" y="278.41" width="39.42" height="2.59" style="fill:#777;opacity:0.30000001192092896;isolation:isolate"/></g></g></g></svg>
