<?xml version="1.0" encoding="utf-8"?>
<!-- Generator: Adobe Illustrator 24.3.0, SVG Export Plug-In . SVG Version: 6.00 Build 0)  -->
<svg version="1.1" id="Layer_1" xmlns="http://www.w3.org/2000/svg" xmlns:xlink="http://www.w3.org/1999/xlink" x="0px" y="0px"
	 viewBox="0 0 1155.7 792.9" style="enable-background:new 0 0 1155.7 792.9;" xml:space="preserve">
<style type="text/css">
	.st0{opacity:0.25;fill:#F2F6F6;enable-background:new    ;}
	.st1{fill:#5E65EA;}
	.st2{fill:#FFFFFF;stroke:#FFFFFF;stroke-miterlimit:10;}
	.st3{opacity:0.5;fill:#6C63FF;enable-background:new    ;}
	.st4{fill:#6C63FF;}
	.st5{opacity:0.1;fill:#6C63FF;enable-background:new    ;}
	.st6{fill:#504F60;}
	.st7{opacity:0.1;enable-background:new    ;}
	.st8{fill:#FFFFFF;}
	.st9{fill:#3F3D56;}
	.st10{opacity:0.21;}
	.st11{fill:#FFFFFF;stroke:#33313F;stroke-miterlimit:10;}
	.st12{fill:none;stroke:#33313F;stroke-linecap:round;stroke-miterlimit:10;}
	.st13{fill:#FFFFFF;stroke:#33313F;stroke-linecap:round;stroke-miterlimit:10;}
	.st14{fill:none;stroke:#33313F;stroke-miterlimit:10;}
	.st15{fill:#33313F;}
	.st16{fill:#65617D;}
	.st17{fill:url(#SVGID_1_);}
	.st18{fill:#DB8B8B;}
	.st19{opacity:0.1;fill:#EFB7B9;enable-background:new    ;}
	.st20{fill:#2E3037;}
	.st21{fill:#EFB7B9;}
	.st22{fill:#35323E;}
	.st23{fill:#00C9A2;}
	.st24{fill:#E3787D;}
</style>
<g>
	<path class="st0" d="M434.5,51.6c37.7-23.3,96.8-28.1,150.6-26.2c169.1,5.8,321.7,62.6,453.7,126.7c47.8,23.2,94.9,48.3,125.9,80.3
		c63.2,65.1,44.4,155.3-43.4,209c-29.9,18.3-66.1,32.3-103.3,44.7C952,508,880.6,525.8,805.6,530.8c-53.5,3.6-107.7,0.7-160.9-4.3
		c-148.6-14-294.5-45-416.8-98c-53.6-23.2-104.2-52.1-126.3-89.8s-8-85.3,46.8-107.5c22.7-9.2,49.7-13.4,76.2-17.3
		c39-5.7,78.7-11.4,113.9-23.1c36.4-12.1,79.4-35.4,72.2-62.1C403.1,100,396.8,74.9,434.5,51.6L434.5,51.6z"/>
	<g>
		<path class="st1" d="M910.9,77c6.8,44.6-12,84.4-12,84.4s-29.8-32.4-36.5-77c-3.8-25,0.5-48.5,4.9-64.3c1.6-5.9,7.7-9.3,13.5-7.7
			c2.6,0.7,4.9,2.4,6.4,4.7C896.1,30.8,907.1,52,910.9,77z"/>
		<path class="st1" d="M1036.6,148c6.7,0,13.4,0.8,19.8,2.5c10.9,2.8,11.1,18.2,0.2,21.3c-6.4,1.8-13.1,2.8-19.8,2.9
			c-24.5,0.3-44.6-12.9-44.6-12.9S1012.1,148.3,1036.6,148L1036.6,148z"/>
		<path class="st1" d="M967.6,80.3c-22.8,25.1-27.7,57.9-27.7,57.9s32.2-7.9,55-33c10.6-11.6,17.3-24.9,21.5-35.8
			c2.2-5.7-0.7-12-6.4-14.2c-2.9-1.1-6-0.9-8.8,0.4C990.8,60.7,978.2,68.6,967.6,80.3z"/>
	</g>
	<path class="st2" d="M532.9,259.9h79.6c2.4,0,4.3,1.9,4.3,4.3v111.3c0,2.4-1.9,4.3-4.3,4.3h-79.6c-2.4,0-4.3-1.9-4.3-4.3V264.2
		C528.6,261.9,530.5,259.9,532.9,259.9z"/>
	<path class="st3" d="M544,290.2h57.4c3.9,0,7.1,3.2,7.1,7.1v23.8c0,3.9-3.2,7.1-7.1,7.1H544c-3.9,0-7.1-3.2-7.1-7.1v-23.8
		C536.8,293.4,540,290.2,544,290.2z"/>
	<path class="st4" d="M553.5,343.7h38.4c0.9,0,1.7,0.8,1.7,1.7v2.5c0,0.9-0.8,1.7-1.7,1.7h-38.4c-0.9,0-1.7-0.8-1.7-1.7v-2.5
		C551.8,344.5,552.5,343.7,553.5,343.7z"/>
	<path class="st2" d="M682,259.9h79.6c2.4,0,4.3,1.9,4.3,4.3v111.3c0,2.4-1.9,4.3-4.3,4.3H682c-2.4,0-4.3-1.9-4.3-4.3V264.2
		C677.7,261.9,679.6,259.9,682,259.9z"/>
	<path class="st3" d="M702.4,278.7h39.3c0.8,0,1.5,0.7,1.5,1.5v19.5c0,0.8-0.7,1.5-1.5,1.5h-39.3c-0.8,0-1.5-0.7-1.5-1.5v-19.5
		C700.9,279.3,701.5,278.7,702.4,278.7z"/>
	<path class="st4" d="M696.4,322.1H747c0.9,0,1.7,0.8,1.7,1.7v2.5c0,0.9-0.8,1.7-1.7,1.7h-50.6c-0.9,0-1.7-0.8-1.7-1.7v-2.5
		C694.7,322.9,695.5,322.1,696.4,322.1z"/>
	<path class="st4" d="M696.4,333.2H747c0.9,0,1.7,0.8,1.7,1.7v2.5c0,0.9-0.8,1.7-1.7,1.7h-50.6c-0.9,0-1.7-0.8-1.7-1.7v-2.5
		C694.7,333.9,695.5,333.2,696.4,333.2z"/>
	<path class="st2" d="M830.5,174.8h79.6c2.4,0,4.3,1.9,4.3,4.3v111.3c0,2.4-1.9,4.3-4.3,4.3h-79.6c-2.4,0-4.3-1.9-4.3-4.3V179.1
		C826.2,176.7,828.1,174.8,830.5,174.8z"/>
	<path class="st3" d="M843,193.4h54.5c0.8,0,1.5,0.7,1.5,1.5v23.9c0,0.8-0.7,1.5-1.5,1.5H843c-0.8,0-1.5-0.7-1.5-1.5v-23.9
		C841.5,194,842.2,193.4,843,193.4z"/>
	<path class="st3" d="M843,232.3h54.5c0.8,0,1.5,0.7,1.5,1.5v23.9c0,0.8-0.7,1.5-1.5,1.5H843c-0.8,0-1.5-0.7-1.5-1.5v-23.9
		C841.5,233,842.2,232.3,843,232.3z"/>
	<path class="st4" d="M840.8,280.7H852c2.1,0,3.8,1.7,3.8,3.8v0.6c0,2.1-1.7,3.8-3.8,3.8h-11.2c-2.1,0-3.8-1.7-3.8-3.8v-0.6
		C837,282.4,838.7,280.7,840.8,280.7z"/>
	<path class="st4" d="M864.7,280.7h11.2c2.1,0,3.8,1.7,3.8,3.8v0.6c0,2.1-1.7,3.8-3.8,3.8h-11.2c-2.1,0-3.8-1.7-3.8-3.8v-0.6
		C860.8,282.4,862.6,280.7,864.7,280.7z"/>
	<path class="st4" d="M888.6,280.7h11.2c2.1,0,3.8,1.7,3.8,3.8v0.6c0,2.1-1.7,3.8-3.8,3.8h-11.2c-2.1,0-3.8-1.7-3.8-3.8v-0.6
		C884.7,282.4,886.4,280.7,888.6,280.7z"/>
	<path class="st2" d="M830.2,345.1h79.6c2.4,0,4.3,1.9,4.3,4.3v111.3c0,2.4-1.9,4.3-4.3,4.3h-79.6c-2.4,0-4.3-1.9-4.3-4.3V349.4
		C825.9,347.1,827.9,345.1,830.2,345.1z"/>
	<path class="st3" d="M834.2,359.2h23.4c0.8,0,1.5,0.7,1.5,1.5v23.9c0,0.8-0.7,1.5-1.5,1.5h-23.4c-0.8,0-1.5-0.7-1.5-1.5v-23.9
		C832.8,359.8,833.4,359.2,834.2,359.2z"/>
	<path class="st4" d="M844.8,402.3h50.6c0.9,0,1.7,0.8,1.7,1.7v2.5c0,0.9-0.8,1.7-1.7,1.7h-50.6c-0.9,0-1.7-0.8-1.7-1.7V404
		C843.1,403,843.8,402.3,844.8,402.3z"/>
	<path class="st4" d="M844.8,414.2h50.6c0.9,0,1.7,0.8,1.7,1.7v2.5c0,0.9-0.8,1.7-1.7,1.7h-50.6c-0.9,0-1.7-0.8-1.7-1.7v-2.5
		C843.1,415,843.8,414.2,844.8,414.2z"/>
	<path class="st4" d="M844.8,426.2h50.6c0.9,0,1.7,0.8,1.7,1.7v2.5c0,0.9-0.8,1.7-1.7,1.7h-50.6c-0.9,0-1.7-0.8-1.7-1.7v-2.5
		C843.1,426.9,843.8,426.2,844.8,426.2z"/>
	<path class="st2" d="M667.5,317l-1.3,0.6l-10.9,5.3l-1,0.5c-0.3,0.1-0.6,0-0.7-0.3c0,0,0,0,0,0c0-0.1,0-0.1,0-0.2v-3.1
		c0-0.3-0.2-0.5-0.5-0.5l0,0h-26.6c-0.3,0-0.5-0.2-0.5-0.5v-4.4c0-0.3,0.2-0.5,0.5-0.5H653c0.3,0,0.5-0.2,0.5-0.5v-3.2
		c0-0.1,0-0.1,0-0.2c0.1-0.3,0.4-0.4,0.7-0.3c0,0,0,0,0,0l1,0.5l10.9,5.3l1.3,0.7c0.3,0.1,0.4,0.4,0.3,0.7
		C667.7,316.9,667.6,317,667.5,317L667.5,317z"/>
	<path class="st2" d="M815.6,290.1l-0.9,1.2l-7.2,9.8l-0.6,0.9c-0.2,0.2-0.5,0.3-0.8,0.1c0,0,0,0,0,0c-0.1,0-0.1-0.1-0.1-0.2
		l-1.5-2.7c-0.1-0.3-0.5-0.4-0.7-0.2l-23.5,12.5c-0.3,0.1-0.6,0-0.7-0.2c0,0,0,0,0,0l-2.1-3.9c-0.1-0.3,0-0.6,0.2-0.7c0,0,0,0,0,0
		l23.5-12.5c0.3-0.1,0.4-0.5,0.2-0.7c0,0,0,0,0,0l-1.5-2.8c0-0.1-0.1-0.1-0.1-0.2c0-0.3,0.2-0.5,0.4-0.6c0,0,0,0,0.1,0h1.1l12.1-0.4
		l1.5,0c0.3,0,0.5,0.2,0.5,0.5C815.6,289.9,815.6,290,815.6,290.1z"/>
	<path class="st2" d="M815.5,341.3H814h-12.1h-1.1c-0.3,0-0.5-0.2-0.5-0.5c0,0,0,0,0,0c0-0.1,0-0.1,0-0.2l1.3-2.8
		c0.1-0.3,0-0.6-0.2-0.7c0,0,0,0,0,0l-24-11.5c-0.3-0.1-0.4-0.5-0.2-0.7l1.9-4c0.1-0.3,0.4-0.4,0.7-0.3c0,0,0,0,0,0l24,11.5
		c0.3,0.1,0.6,0,0.7-0.2l1.4-2.9c0.1-0.3,0.4-0.4,0.7-0.3c0.1,0,0.1,0.1,0.2,0.2l0.7,0.8l7.5,9.5l0.9,1.2c0.2,0.2,0.2,0.6,0,0.7
		C815.7,341.3,815.6,341.3,815.5,341.3L815.5,341.3z"/>
	<g>
		<ellipse class="st5" cx="242.5" cy="682.8" rx="237.5" ry="36"/>
		<path class="st6" d="M320,467.8l-0.1,2.9l-5.1,180.1h-8.6l4.2-180.1l0.1-3.4L320,467.8z"/>
		<path class="st7" d="M320,467.8l-0.1,2.9l-5.1,180.1h-8.6l4.2-180.1l0.1-3.4L320,467.8z"/>
		<path class="st6" d="M369.6,620.3l-6.4,0l-95.5-0.2l-5.1,0l2.7-8.3h103.6L369.6,620.3z"/>
		<path class="st7" d="M320,467.8l-0.1,2.9h-9.5l0.1-3.4L320,467.8z"/>
		<path class="st6" d="M307.7,463.4h15.9v6h-15.9V463.4z"/>
		<path class="st7" d="M268.6,611.7l-0.9,8.4l-5.1,0l2.7-8.3H268.6z"/>
		<path class="st6" d="M282.3,463.3l-0.3,2.6l-21.2,208.8l-9.7-0.5l22.3-208.4l0.2-2.4L282.3,463.3z"/>
		<path class="st7" d="M369.6,620.3l-6.4,0l-0.9-8.6h6.6L369.6,620.3z"/>
		<path class="st6" d="M379.8,674.2l-9.7,0.5l-21.2-208.8l-0.3-2.6l8.6,0.2l0.2,2.4L379.8,674.2z"/>
		<path class="st8" d="M207.1,257.3h213.9v205.1H207.1L207.1,257.3z"/>
		<path class="st8" d="M178.4,257.3h271.7c10,0,18.1,8.1,18.1,18.1v168.8c0,10-8.1,18.1-18.1,18.1H178.4c-10,0-18.1-8.1-18.1-18.1
			V275.5C160.2,265.5,168.3,257.3,178.4,257.3z"/>
		<path class="st6" d="M318.3,188.8v49.5h-8.3v-49.5c0-2.3,1.9-4.2,4.2-4.2C316.4,184.6,318.3,186.4,318.3,188.8
			C318.3,188.7,318.3,188.7,318.3,188.8z"/>
		<path class="st7" d="M309.9,233.8h8.4v4.5h-8.4V233.8z"/>
		<path class="st6" d="M321.5,237.2v16.4h-14.9v-16.4c0-1.1,0.9-2,2-2h10.8C320.6,235.1,321.5,236,321.5,237.2
			C321.5,237.1,321.5,237.1,321.5,237.2L321.5,237.2z"/>
		<circle class="st7" cx="314.1" cy="245.5" r="3.2"/>
		<circle class="st9" cx="314.1" cy="244.8" r="3.2"/>
		<path class="st7" d="M306.7,251.5h14.9v2h-14.9V251.5z"/>
		<path class="st7" d="M300.6,254.2h27.1v4.5h-27.1V254.2z"/>
		<path class="st6" d="M300.6,252.8h27.1v4.5h-27.1V252.8z"/>
		<path class="st7" d="M260.4,457.1H372c3.3,0,6,2.7,6,6l0,0H254.4l0,0C254.4,459.8,257.1,457.1,260.4,457.1L260.4,457.1z"/>
		<path class="st7" d="M273.7,463.5l8.6-0.2l-0.3,2.6h-8.6L273.7,463.5z"/>
		<path class="st7" d="M307.7,463.4h15.9v2.5h-15.9V463.4z"/>
		<path class="st7" d="M357.4,465.8h-8.6l-0.3-2.6l8.6,0.2L357.4,465.8z"/>
		<path class="st6" d="M260.4,458.5H372c3.3,0,6,2.7,6,6l0,0H254.4l0,0C254.4,461.2,257.1,458.5,260.4,458.5L260.4,458.5z"/>
		<g class="st10">
			<path class="st11" d="M388.2,298.9c0.6-0.1,1.2,0.3,1.3,1c0,0.1,0,0.2,0,0.3c-1.1,10.9-0.4,22,0.8,32.9c0.6,5,1.3,10.2,3.5,13.9
				c0.3,0.5,0.2,1.1-0.2,1.4c-0.6,0.5-1.4,0.7-2.2,0.6l-34.7,0.2c-0.6,0-1.2-0.5-1.2-1.1c0-0.1,0-0.2,0-0.3
				c2.8-11.9,2.2-24.9,1.1-37.2c-0.6-6.1-0.9-9.3,3.7-9.8c4.7-0.4,9.3-0.6,14-1C375.6,299.7,384.6,299.5,388.2,298.9L388.2,298.9z"
				/>
			<path class="st11" d="M361.7,370.1c-0.6-0.1-1.2,0.3-1.3,1c0,0.1,0,0.2,0,0.3c1.1,10.9,0.4,22-0.8,32.9c-0.6,5-1.3,10.2-3.5,13.9
				c-0.3,0.5-0.2,1.1,0.2,1.4c0.6,0.5,1.4,0.7,2.2,0.6l34.7,0.2c0.6,0,1.2-0.5,1.2-1.2c0-0.1,0-0.2,0-0.3
				c-2.8-11.9-2.2-24.9-1.1-37.2c0.6-6.1,0.9-9.3-3.7-9.8c-4.5-0.4-9.3-0.6-14-1C374.3,371,365.4,370.7,361.7,370.1L361.7,370.1z"/>
			<path class="st12" d="M371.9,390.1c4-0.2,8.1-0.1,12.1,0.1c0.5,0.1,1,0.5,1,1l0.4,3.2c0,0.1,0,0.3-0.1,0.4
				c-0.1,0.1-0.2,0.1-0.3,0.1c-1.7,0-3.4-0.1-5.1,0c-1,0.1-2.1,0.3-3.1,0.4c-1.7,0.2-3.4,0.2-5.2,0.1c-2.4,0-4.9-0.3-7.2-0.9
				c0,0,0.1-2.6,0.1-2.9c0-1.2,0-1.3,1.2-1.4L371.9,390.1z"/>
			<path class="st12" d="M371.9,404.5c4,0.2,8.1,0.1,12.1-0.2c0.5-0.1,1-0.5,1-1l0.4-3.2c0-0.1,0-0.3-0.1-0.4
				c-0.1-0.1-0.2-0.1-0.3-0.1c-1.7,0-3.4,0.2-5.1,0c-1-0.1-2.1-0.3-3.1-0.4c-1.7-0.2-3.4-0.2-5.2-0.1c-2.4,0-4.9,0.3-7.2,0.9
				c0,0,0.1,2.6,0.1,2.9c0,1.2,0,1.3,1.2,1.4L371.9,404.5z"/>
			<path class="st12" d="M371.9,410.1c4-0.2,8.1-0.1,12.1,0.2c0.5,0.1,1,0.5,1,1l0.4,3.2c0,0.1,0,0.3-0.1,0.4
				c-0.1,0.1-0.2,0.1-0.3,0.1c-1.7,0-3.4-0.2-5.1,0c-1,0.1-2.1,0.3-3.1,0.4c-1.7,0.1-3.4,0.2-5.2,0.1c-2.4,0-4.9-0.3-7.2-0.9
				c0,0,0.1-2.6,0.1-2.9c0-1.2,0-1.3,1.2-1.4L371.9,410.1z"/>
			<path class="st13" d="M377,343.6c0.4,0.9,0.5,1.8,0.3,2.7c0,0.1,0,0.1-0.1,0.2c-0.1,0.1-0.2,0.1-0.3,0.1l-7.4,0.3
				c0,0,0.4-2.2,0.5-2.3c0.3-0.9,0.9-0.7,1.7-0.7L377,343.6z"/>
			<path class="st13" d="M388.1,343.6c0.4,0.9,0.5,1.8,0.3,2.7c0,0.1,0,0.1,0,0.2c-0.1,0.1-0.2,0.1-0.3,0.1l-7.4,0.3
				c0,0,0.4-2.2,0.5-2.3c0.2-0.9,0.9-0.7,1.7-0.7L388.1,343.6z"/>
			<path class="st14" d="M383.7,306.5l1,8.5c0.1,1.3-0.8,2.4-2.1,2.6c0,0,0,0-0.1,0c-6.3,0.5-12.6,0.5-18.9-0.1
				c-1.2-0.1-2.1-1.1-2.1-2.2c-0.1-1.5-0.3-3-0.7-4.5c-0.3-1.6-0.5-3.1,1.3-3.5c1.8-0.5,4.3-0.1,6.3-0.2c2.4,0,4.8-0.1,7.2-0.2
				C376.4,306.8,383.7,306.4,383.7,306.5L383.7,306.5z"/>
			<path class="st14" d="M383.7,337.4l1-8.5c0.1-1.3-0.8-2.4-2.1-2.6c0,0,0,0-0.1,0c-6.3-0.5-12.6-0.5-18.9,0.1
				c-1.2,0.1-2.1,1.1-2.1,2.2c-0.1,1.5-0.3,3-0.7,4.5c-0.3,1.6-0.5,3.1,1.3,3.5s4.3,0.1,6.3,0.2c2.4,0,4.8,0.1,7.2,0.2
				C376.4,337,383.7,337.4,383.7,337.4L383.7,337.4z"/>
			<path class="st12" d="M373.7,375.9c-0.3,2.8-0.4,5.7-0.5,8.5c-2.9,0-5.7-0.3-8.5-1c-0.8,0-1.5-0.7-1.4-1.6c0-0.1,0-0.2,0-0.3
				c-0.1-1.8-1-5.7,1.5-6C365.6,375.6,373.7,376,373.7,375.9L373.7,375.9z"/>
			<path class="st13" d="M236.5,337.1c1.4-0.1,2.6,0.8,2.7,2.2c0,0.2,0,0.3,0,0.5c-0.9,10.3-0.2,20.9,1,31.2c0.5,4.6,1.2,9.4,3,13
				c0.5,1,0.1,2.2-0.9,2.7c-0.3,0.1-0.6,0.2-0.9,0.2l-34.4,0.2c-0.8,0-1.4-0.6-1.4-1.4c0-0.1,0-0.2,0-0.3c2.7-11.8,2.1-24.7,1-37
				c-0.6-6.1-0.9-9.3,3.7-9.8c4.7-0.4,9.3-0.6,13.9-1C225.3,337.7,232.4,337.5,236.5,337.1L236.5,337.1z"/>
			<path class="st11" d="M284.4,336.9c-0.7-0.1-1.3,0.4-1.4,1c0,0.1,0,0.2,0,0.3c1.1,10.8,0.4,21.9-0.8,32.8
				c-0.6,5-1.3,10.2-3.5,13.9c-0.3,0.5-0.2,1.2,0.3,1.6c0.6,0.4,1.3,0.5,2,0.5l34.6,0.2c0.7,0,1.2-0.6,1.2-1.2c0-0.1,0-0.2,0-0.3
				c-2.8-11.9-2.2-24.8-1-37.1c0.6-6.1,0.9-9.3-3.7-9.8c-4.7-0.4-9.3-0.6-14-1C296.9,337.7,288.1,337.4,284.4,336.9L284.4,336.9z"/>
			<path class="st13" d="M215.9,343.9l17.6,23.5"/>
			<path class="st13" d="M233.5,342.2l-17,26.4"/>
			<path class="st13" d="M294.4,345l9.6,12.8"/>
			<path class="st13" d="M304,344.1l-9.3,14.4"/>
			<path class="st12" d="M221.7,374.9c4-0.2,8.1-0.1,12.1,0.1c0.5,0.1,1,0.5,1,1l0.4,3.2c0,0.1,0,0.3-0.1,0.4
				c-0.1,0.1-0.2,0.1-0.3,0.1c-1.7,0-3.4-0.2-5.1,0c-1,0.1-2.1,0.3-3.1,0.4c-1.7,0.2-3.4,0.2-5.2,0.1c-2.4,0-4.8-0.3-7.2-0.9
				c0,0,0.1-2.6,0.1-2.9c0-1.2,0-1.3,1.2-1.4L221.7,374.9z"/>
			<path class="st12" d="M295.6,363.2c4-0.2,8.1-0.1,12.1,0.2c0.5,0.1,1,0.5,1,1l0.4,3.2c0,0.1,0,0.3-0.1,0.4
				c-0.1,0.1-0.2,0.1-0.3,0.1c-1.7,0-3.4-0.2-5.1,0c-1,0.1-2.1,0.3-3.1,0.4c-1.7,0.2-3.4,0.2-5.2,0.1c-2.4,0-4.9-0.3-7.2-0.9
				c0,0,0.1-2.6,0.1-2.9c0-1.2,0-1.3,1.2-1.4L295.6,363.2z"/>
			<path class="st12" d="M301.8,372c-4-0.2-8.1-0.1-12.1,0.1c-0.5,0.1-1,0.5-1,1l-0.4,3.2c0,0.1,0,0.3,0.1,0.4
				c0.1,0.1,0.2,0.1,0.3,0.1c1.7,0,3.4-0.1,5.1,0c1,0.1,2.1,0.3,3.1,0.4c1.7,0.1,3.4,0.2,5.2,0.1c2.4,0,4.9-0.3,7.2-0.9
				c0,0-0.1-2.6-0.1-2.9c0-1.2,0-1.3-1.2-1.4L301.8,372z"/>
			<path class="st14" d="M251.5,366.2c0,0,11.4-0.6,13.5,0"/>
			<path class="st14" d="M265,360.1c0,0,5,5,5,6.2c0,1.2-6.4,5.3-6.4,5.3"/>
			<path class="st14" d="M326.3,355.6c0,0,10.4-4.8,12.5-5.1"/>
			<path class="st14" d="M336.4,344.8c0,0,6.5,2.7,6.9,3.8c0.4,1.1-4,7.3-4,7.3"/>
			<path class="st14" d="M326.2,368c0,0,10.5,4.5,12.1,5.9"/>
			<path class="st14" d="M341,368.3c0,0,2.3,6.7,1.8,7.7c-0.5,1.1-8.1,1.9-8.1,1.9"/>
			<path class="st13" d="M367,343.6c0.4,0.9,0.5,1.8,0.3,2.7c0,0.1,0,0.1,0,0.2c-0.1,0.1-0.2,0.1-0.3,0.1l-7.4,0.3
				c0,0,0.4-2.2,0.5-2.3c0.2-0.9,0.9-0.7,1.7-0.7L367,343.6z"/>
		</g>
		<path class="st15" d="M206.6,425.1l3.4-3.1l-3-0.1l-1.6,2.4L206.6,425.1z"/>
		<path class="st16" d="M182.5,447.1l3.6-4.6l0.8-0.8l10.9-11.4l3.7-3.9l1.7-0.2l2.5-2.5l1.5,1.3l-2.4,2.8l0,1.5l-3.8,4.1L190.3,445
			l-0.7,0.7l-4.3,4L182.5,447.1z"/>
		<path class="st15" d="M186.8,441.7l10.9-11.4l3.2,3.2L190.3,445L186.8,441.7z"/>
		
			<linearGradient id="SVGID_1_" gradientUnits="userSpaceOnUse" x1="181.0227" y1="37.2934" x2="181.0227" y2="580.1406" gradientTransform="matrix(1 0 0 -1 -44.77 751.7115)">
			<stop  offset="0" style="stop-color:#808080;stop-opacity:0.25"/>
			<stop  offset="0.54" style="stop-color:#808080;stop-opacity:0.12"/>
			<stop  offset="1" style="stop-color:#808080;stop-opacity:0.1"/>
		</linearGradient>
		<path class="st17" d="M203.3,446.1c-3.2-2.9-5.9-6.3-8.2-10c-4.8-7.5-12.8-11.5-18.3-13.5v-2.4l0.3-0.1l-0.1-2.3h0.1l-0.4-6v0
			l-2-29.8c0,0-7-19.8,5.5-38.2s0.8-35.9-11-42.7c0,0-5.5-29-0.8-35.9c-6.4-3.7-12.9-7-19.7-9.9c-0.1-0.4-0.2-0.7-0.3-1.1
			c-0.1-2.7-0.3-5.4-0.5-8.1c0.2-1.4,0.4-2.8,0.8-4.2c0.1-0.6,0.3-1.1,0.5-1.7c11.5-4.4,19.1-15.3,19.1-27.6c0-3.5-0.6-7-1.9-10.2
			c0.6-1,1.1-2.2,1.4-3.3c0.8-3.1-0.1-6.4-1.9-9.5c-3.1-6.8-11-13.1-16.6-15.5c-8.1-3.3-20.4-2.5-28.9-1.5
			c-4.8,0.6-10.2,2.2-11.9,6.5c-0.6,1.6-0.6,3.4-1.1,5c-1.8,6.7-9.5,9.8-14.2,14.9c-4.2,4.5-6,10.6-7.4,16.5
			c-3.9,17-4.8,34.5-2.8,51.8c0.5,4,1.1,8,1.8,11.9c-2.9,4-5.4,11.1-4.3,23.4l-9.4,44.3l-3.9,26c0,0-2.4,10.7,7,19.8
			c6,5.8,13.2,15.7,17.7,22.1c-1.9,5.7-2.9,11.6-2.9,17.6c0.1,2.7,0.2,5.3,0.4,7.8c0.4,5.3,1.4,10.6,3,15.6
			c1.1,10.7,3.3,24.3,7.5,33l1.6,46.5c0,0-2.4,42.7-7,51.1s10.2,79.4,10.2,79.4v9.9l-2.5,7.3l-0.6-0.5c-11.7,14.5,0,19.8,0,19.8
			s3.2,0.2,8.3,0.3c-0.9,4.2,1.2,8.4,5,10.3c0,0,66.5,3,78.3,0s8.6-13.7,2.3-13c-2.4,0.3-5.9-0.3-9.4-1.2c3.6-4.2,0.7-10-3.9-9.5
			c-6.3,0.8-20.4-4.8-20.4-4.8l-0.1,0.1c-0.4-0.2-0.9-0.3-1.4-0.4c-5.2-1.2-10.4-2.6-15.5-4.3c-3-6.4-10-23.7-5-37.1
			c2.3-6.1,3-14.1,3-21.9c0.1-23.6,3.6-47,10.3-69.7l9.4-32c0,0,13.3-38.9,14.1-49.6l0-15.5c11,7,19.8,4.9,25.3,1.6
			c2.9-1.7,3.8-5.4,2.1-8.2C204.1,447,203.7,446.5,203.3,446.1L203.3,446.1z M98.8,365.1c0.3-1.1,0.5-2.3,0.7-3.6
			c1.8,0,3.7,0,5.5-0.1c2.3,4.6,3.3,9.8,2.8,15C103.5,375.1,97.2,371.9,98.8,365.1L98.8,365.1z"/>
		<path class="st18" d="M106.2,672l-3,9l9.8,9.8l32.4,7.5l23.4-2.3l-1.5-8.3c-0.9-3.6-3.8-6.4-7.4-7.3c-9.6-2.3-27.9-7.4-31.8-14.5
			L106.2,672z"/>
		<path class="st19" d="M106.2,672l-3,9l9.8,9.8l32.4,7.5l23.4-2.3l-1.5-8.3c-0.9-3.6-3.8-6.4-7.4-7.3c-9.6-2.3-27.9-7.4-31.8-14.5
			L106.2,672z"/>
		<path class="st20" d="M161.2,693.8l-4.5-6l4.5-7c0,0,13.5,5.5,19.6,4.7s9,9.8-2.3,12.8s-75.3,0-75.3,0s-11.3-5.3,0-19.6l9.8,7.5
			c0,0,16.6,9,24.9,7.5H161.2z"/>
		<path class="st21" d="M181.6,706.6l-23.4,2.3l-32.4-7.5l-9.8-9.8l0.8-2.4l1.1-3.4l1.1-3.3l21.8-6c1.1,1.8,2.6,3.3,4.4,4.4
			c7.1,4.8,19.8,8.4,27.3,10.1c0.3,0.1,0.6,0.2,0.9,0.3c3.2,1.1,5.7,3.7,6.5,7L181.6,706.6z"/>
		<path class="st7" d="M181.6,706.6l-23.4,2.3l-32.4-7.5l-9.8-9.8l0.8-2.4l9,6.9c0,0,16.6,9,24.9,7.5H174l-4.5-6l4.1-6.3
			c3.2,1.1,5.7,3.7,6.5,7L181.6,706.6z"/>
		<path class="st20" d="M174,704.3l-4.5-6l4.5-7c0,0,13.6,5.5,19.6,4.7s9,9.8-2.2,12.8s-75.3,0-75.3,0s-11.3-5.3,0-19.6l9.8,7.5
			c0,0,16.6,9,24.9,7.5L174,704.3z"/>
		<path class="st18" d="M155.2,267.4c0,0-36.2,3.8-30.9-11.3c1.5-4.3,1.9-8.8,1.1-13.3c-0.9-5.5-3.1-10.8-6.4-15.3l33.9,5.3
			c-2,3.4-3.6,7.1-4.6,10.9C144.3,259.7,155.2,267.4,155.2,267.4z"/>
		<path class="st22" d="M93.4,439.2c0,0,0.8,32.4,8.3,48.2l1.5,45.9c0,0-2.3,42.2-6.8,50.5s9.8,78.3,9.8,78.3v12
			c0,0,24.1,9,30.9-1.5l-6.8-89.6l3-124.3L93.4,439.2z"/>
		<path class="st7" d="M93.4,439.2c0,0,0.8,32.4,8.3,48.2l1.5,45.9c0,0-2.3,42.2-6.8,50.5s9.8,78.3,9.8,78.3v12c0,0,24.1,9,30.9-1.5
			l-6.8-89.6l3-124.3L93.4,439.2z"/>
		<path class="st23" d="M78.4,335.2l-4.5,12l-3.8,25.6c-1,7.2,1.5,14.5,6.8,19.6c9,9,21.1,27.9,21.1,27.9l14.3-42.9
			c0,0-14.3-2.3-12-12s1.5-27.9,1.5-27.9L78.4,335.2z"/>
		<path class="st7" d="M145.3,680.9c-9.7,15.2-24.7,6.6-27.4,4.9l1.1-3.3l21.8-6C142,678.2,143.5,679.8,145.3,680.9z"/>
		<path class="st22" d="M175.5,468.5c-0.8,10.5-13.6,49-13.6,49l-9,31.6c-6.5,22.3-9.8,45.5-10,68.7c0,7.7-0.7,15.7-2.9,21.7
			c-6,16.6,6,39.2,6,39.2c-10.5,18.8-28.6,6-28.6,6v-12c0,0-14.3-65.6-10.5-78.4c3.8-12.8,5.3-47.5,5.3-47.5v-62.5
			c-12.1-12-19.4-28-20.7-45c-0.2-2.5-0.3-5.1-0.4-7.8c-0.6-17,11-36.9,15.5-44c1.1-1.7,1.8-2.7,1.8-2.7l66.5,26.4l0.1,0.1v2.6v5.7
			L175.5,468.5z"/>
		<path class="st7" d="M152.9,232.8c-2,3.4-3.6,7.1-4.6,10.9c-7.4,2.8-15.7,2.5-22.9-0.8c-0.9-5.5-3.1-10.8-6.4-15.3L152.9,232.8z"
			/>
		
			<ellipse transform="matrix(0.1602 -0.9871 0.9871 0.1602 -96.1378 316.4088)" class="st21" cx="137.9" cy="214.7" rx="29.4" ry="29.4"/>
		<path class="st7" d="M175.5,419.6l-0.3,0.1c-31.6,6.5-71.2-26.4-71.2-26.4c1.1-1.8,2-3.7,2.7-5.6c1.1-1.7,1.8-2.7,1.8-2.7
			l66.5,26.4l0.2,2.6L175.5,419.6z"/>
		<path class="st23" d="M167.2,266.7c0,0-42.2-25.6-55.7-15.1l-18.8,24.1c0,0-12.1,3.8-9.8,27.9l-9,43.7l27.1,6.8
			c0,0,15.8,15.1,3,36.9c0,0,39.9,33.1,71.6,26.4l-2.3-35.4c0,0-6.8-19.6,5.3-37.7s0.8-35.4-10.5-42.2
			C168,302.1,162.7,273.5,167.2,266.7L167.2,266.7z"/>
		<path class="st21" d="M169.5,420.3c0,0,15.8,3,23.4,15.1c2.2,3.6,4.8,6.9,7.9,9.8c2.4,2.3,2.6,6,0.3,8.5c-0.4,0.4-0.8,0.8-1.3,1
			c-6,3.6-15.7,5.8-28-4.3C150.7,433.1,169.5,420.3,169.5,420.3L169.5,420.3z"/>
		<path class="st7" d="M146.2,281c0,0-15.1-1.5-18.8,37.7c-3.8,39.2-9.8,48.2-9.8,48.2s-3.8,20.3,5.3,32.4s26.4,37.8,26.4,37.8
			s18.8,5.3,22.6-13.6l-23.4-43.7c0,0-3.8-15.1,5.3-25.6S169.5,273.5,146.2,281L146.2,281z"/>
		<path class="st23" d="M147.7,278.7c0,0-15.1-1.5-18.8,37.7c-3.8,39.2-9.8,48.2-9.8,48.2s-3.8,20.4,5.3,32.4s26.4,37.7,26.4,37.7
			s18.8,5.3,22.6-13.5l-23.4-43.7c0,0-3.8-15.1,5.3-25.6S171,271.2,147.7,278.7L147.7,278.7z"/>
		<path class="st7" d="M160.1,307c0,0,1.5,23.4-5.3,36.2c-6.8,12.8-6.8,29.4,0,38.4"/>
		<path class="st7" d="M163.9,278.4c0,0-6-6-23.4-6.8s-24.9-6-24.9-6"/>
		<path class="st7" d="M122,176.7c-4.6,0.6-9.8,2.1-11.5,6.4c-0.6,1.6-0.6,3.3-1,5c-1.7,6.6-9.1,9.6-13.7,14.7
			c-4,4.4-5.8,10.5-7.1,16.3c-3.8,16.8-4.7,34.1-2.7,51.1c1.5,12.5,4.5,24.8,5.3,37.3s-0.7,25.8-7.6,36.3c-3,4.5-6.8,8.5-8.9,13.5
			c4.3,3.5,10.3,4,15.8,4.2c6.5,0.2,13,0.2,19.4,0c3.4-0.1,7-0.3,9.9-2.1c2.2-1.4,4-3.3,5.2-5.6c3.7-6.3,4.6-13.9,4.5-21.1
			s-1.3-14.5-1.5-21.9c-0.1-4,0.2-8.2,2.5-11.5c1.6-2.4,4.2-3.9,6.3-5.8c8.1-7.1,10.8-18.6,11.1-29.4c0.3-10.8-1.5-21.6-0.6-32.3
			c0.4-4.2,1.9-9.2,6.1-10.1c1.3-0.3,2.7,0,3.9-0.5c3.3-1.3,3-6,3.9-9.4c1.1-3.9,4.4-6.8,5.3-10.7c2.2-9.1-9.4-20-17-23.2
			C141.9,175,130.1,175.7,122,176.7L122,176.7z"/>
		<path class="st24" d="M121.2,175.2c-4.6,0.6-9.8,2.1-11.5,6.4c-0.4,1.6-0.8,3.3-1,5c-1.7,6.6-9.1,9.6-13.7,14.7
			c-4,4.4-5.8,10.4-7.1,16.3c-3.7,16.8-4.6,34.1-2.6,51.2c1.5,12.5,4.5,24.8,5.3,37.3s-0.7,25.8-7.6,36.3c-3,4.5-6.8,8.5-8.9,13.5
			c4.3,3.5,10.3,4,15.8,4.2c6.5,0.2,13,0.2,19.4,0c3.4-0.1,7-0.3,9.9-2.1c2.2-1.4,4-3.3,5.2-5.6c3.7-6.3,4.6-13.9,4.5-21.1
			s-1.3-14.5-1.5-21.9c-0.1-4,0.2-8.2,2.5-11.5c1.7-2.4,4.2-3.9,6.3-5.8c8.1-7.1,10.8-18.6,11.1-29.4c0.3-10.8-1.5-21.6-0.6-32.3
			c0.4-4.2,1.9-9.2,6.1-10.1c1.3-0.3,2.7,0,3.9-0.5c3.3-1.3,3-5.9,3.9-9.4c1.1-3.9,4.3-6.8,5.3-10.7c2.2-9.1-9.4-20-17-23.2
			C141.1,173.5,129.4,174.2,121.2,175.2L121.2,175.2z"/>
	</g>
</g>
</svg>
