<?xml version="1.0" encoding="utf-8"?>
<!-- Generator: Adobe Illustrator 25.0.0, SVG Export Plug-In . SVG Version: 6.00 Build 0)  -->
<svg version="1.1" id="design" xmlns="http://www.w3.org/2000/svg" xmlns:xlink="http://www.w3.org/1999/xlink" x="0px" y="0px"
	 viewBox="0 0 1410.8 531.1" style="enable-background:new 0 0 1410.8 531.1;" xml:space="preserve">
<style type="text/css">
	.st0{opacity:0.2;}
	.st1{fill:none;stroke:#16152B;stroke-width:2;stroke-miterlimit:10;}
	.st2{fill:none;}
</style>
<g class="st0">
	<path class="st1" d="M1,529.3c469.9,0.3,939.9,1.7,1409.8,1.2"/>
	<path class="st1" d="M1,526.7c236,1.5,472.2-3.5,708.1,0.8c107.2,2,214.2-2.4,321.4-1.9c126.7,0.6,253.6,4.5,380.3,2.2"/>
	<path class="st1" d="M1,524.1c126.8,1.4,253.6,1,380.3,0.9c109.4-0.1,218.9-4.6,328.3-0.7c107.2,3.8,213.3-6.2,320.4-6
		c126.9,0.2,253.9,10.1,380.8,6.7"/>
	<path class="st1" d="M1,521.7c126.9,2,253.7,0.7,380.6,0.5c109.6-0.2,219.4-6.9,328.9-1.1c107.3,5.7,211.9-11.1,318.9-11.9
		c127.3-0.9,254.1,16.8,381.4,13"/>
	<path class="st1" d="M1,519.2c127,2.6,253.9,0.3,380.9,0c109.8-0.2,219.9-9.2,329.7-1.5c51.4,3.8,103,2.8,154.2-3.1
		c54.2-6.3,108.3-15.1,163-16.3c127.9-2.8,254.3,24.4,382.1,21"/>
	<path class="st1" d="M1,516.8c127.1,3.1,254.1-0.1,381.2-0.5c110.1-0.4,220.6-11.7,330.5-2.1c52,4.5,101.2,2.4,152.9-5.8
		c53.9-8.5,107.6-20.3,162.3-22.5c128.7-5.2,254.4,32.8,382.9,30.4"/>
	<path class="st1" d="M1,514.4c127.2,3.7,254.3-0.5,381.4-1.1c110.3-0.5,221.4-14.2,331.5-2.7c52,5.4,100.4,1.6,151.6-9
		c53.5-11,106.7-25.8,161.4-29.2c129.3-8.2,254.6,41.9,383.8,40.9"/>
	<path class="st1" d="M1,512c127.2,4.2,254.4-0.8,381.6-1.6c110.6-0.7,222.4-16.8,332.8-3.4c109.1,13.2,204.1-39.4,310.8-48.9
		c129.8-11.5,254.9,51.4,384.6,52.2"/>
	<path class="st1" d="M1,509.6c127.2,4.8,254.4-1,381.7-2.1c111-1,223.5-19.5,334.2-4.2c109.8,15.1,202.3-47.8,308.7-60.1
		c59.9-7,120.7,9.4,178.1,24.6c68.4,18.1,135.9,37.8,207.1,39.4"/>
	<path class="st1" d="M0.9,507.2c127.2,5.4,254.4-1.1,381.6-2.5c111.4-1.2,224.8-22.4,335.8-5.2c110.5,17.1,200.8-56.3,306.6-71.6
		c60.2-8.7,121.3,11.2,178.2,28.9c68.2,21.3,135.5,44.4,207.6,47.2"/>
	<path class="st1" d="M0.9,504.7c127.1,6,254.2-1,381.3-2.8c111.8-1.5,226.3-25.3,337.7-6.3c111,18.9,199.7-64.9,304.8-83.1
		c60.5-10.5,122,13.1,178.2,33.2c68,24.4,135,51,207.9,54.9"/>
	<path class="st1" d="M0.9,502.2c126.8,6.8,253.8-0.7,380.7-2.8c112.3-1.9,228-28.4,339.8-7.6c111.6,20.8,199-73.3,303.3-94.3
		c60.8-12.2,122.7,15.1,178,37.5c67.7,27.4,134.2,57.3,208,62.5"/>
	<path class="st1" d="M0.9,499.6c126.5,7.5,253.3,0,379.8-2.7c112.8-2.4,229.9-31.6,342.1-9s198.7-81.4,302.3-104.9
		c61-13.9,123.3,17,177.8,41.5c67.2,30.2,133.3,63.4,207.8,69.6"/>
	<path class="st1" d="M0.9,496.9c125.9,8.4,252.6,0.9,378.6-2.3c113.4-2.8,231.9-35,344.7-10.6c112.9,24.4,198.8-89,301.7-114.6
		c61.3-15.3,123.8,18.9,177.5,45.2c66.7,32.7,132.2,69.1,207.4,76.1"/>
	<path class="st1" d="M0.8,494.2c125.2,9.4,251.6,2.1,377-1.6c114-3.4,234.2-38.5,347.5-12.5c113.8,26.2,199.1-95.8,301.7-123.3
		c61.5-16.5,124.3,20.7,177.1,48.7c66,35,130.8,74.3,206.6,81.9"/>
	<path class="st1" d="M0.8,491.3c124.3,10.5,250.4,3.8,375-0.6c114.6-4,236.8-42.2,350.7-14.5c115,28,199.6-101.8,302.4-130.6
		c61.7-17.3,124.5,22.3,176.5,51.7c65.1,36.9,129.2,78.8,205.4,86.6"/>
	<path class="st1" d="M0.7,488.3c125.5,12,255.4,7.3,381.2,0.4c113.2-6.2,232.6-43.6,345.3-16.4c117.1,28.3,197.5-103.7,301.3-135.4
		c61.4-18.8,122.7,20.3,173.9,50.7c65.7,39.1,130.2,85.1,208.4,92.9"/>
	<path class="st1" d="M0.6,485.2c67.6,7.3,135.3,8.1,203.3,6.6c58.2-1.3,116.9-0.8,175-4.4c113.9-7,235.6-47.7,349-18.8
		c56.2,14.3,97.7-7.7,143.9-39.6c50.7-34.9,99.7-81.1,159.7-99.6c61.4-18.9,122.7,21.2,173,52.5c64.6,40.1,128.2,88.1,206.3,95.1"/>
	<path class="st1" d="M0.6,481.9c66.8,8.1,133.7,9.5,200.9,8.3c57.7-1,116.2,0,173.8-4c114.5-7.9,238.8-52.1,353-21.5
		c26.9,7.2,47.5,10.3,74.6,0.8c25.4-8.9,48.6-24.2,70.5-39.5c51.1-35.7,100.7-83.6,161.7-101.9c61.4-18.4,122.3,21.7,172,53.7
		c63.3,40.6,125.9,90.2,203.6,95.8"/>
	<path class="st1" d="M0.5,478.5c65.8,9,131.8,11,198,10.3c57.2-0.6,115.3,1.1,172.4-3.3c63.5-4.9,126.1-18.1,189.2-26.3
		c55-7.2,114-13.2,168.2,2c27.2,7.6,47.7,11.8,75.4,2.5c25.9-8.7,49.5-24.1,71.7-39.6c51.9-36,102.4-85,164.5-102.6
		c61.2-17.3,121.6,21.7,170.7,54c61.8,40.6,123.2,91,200.1,94.6"/>
	<path class="st1" d="M0.4,475c64.5,9.3,129.3,12.2,194.4,12.3c56.5,0,114.1,1.8,170.3-2.9c116.9-9.9,244.5-60,361.4-27.8
		c27.7,7.6,48.8,11.7,77.2,2.9c26.7-8.3,51.3-23.1,74.8-38.1c54.6-34.9,107.7-82.1,171.4-99.8c61.2-17,118.8,19.2,167.7,52.2
		c59.5,40.1,118.3,90.2,193.3,93.1"/>
	<path class="st1" d="M0.4,471.6c63.5,9.4,127.5,13.2,191.6,13.8c55.8,0.6,113,2.4,168.6-2.9C478,471.4,605,418.5,722.9,450.4
		c28.2,7.6,50.1,11.8,79.1,3.5c27.6-7.9,53.4-21.9,78-36.3c57.5-33.5,113.4-78.8,178.8-96.2c61.3-16.4,116.4,16.9,165.1,50.7
		c57.3,39.7,113.7,89.6,186.8,91.7"/>
	<path class="st1" d="M0.3,468.4c62.9,9.4,126.2,13.9,189.8,15c55.3,1,112.1,2.7,167.1-3.2c116.9-12.6,242.5-68.7,360.4-37.1
		c28.8,7.7,51.3,11.9,81,4.4c28.6-7.2,55.6-20.5,81.5-34.2c60.5-31.9,119.4-75,186.7-92c135.6-34.2,214.2,137.4,343.9,140.1"/>
	<path class="st1" d="M0.3,465.2c114.5,16.9,239.3,26.4,354.7,12.1s238.8-73.9,356-43c29.3,7.7,52.7,12.3,83,5.5
		c29.6-6.6,57.9-18.9,85.2-31.8c63.7-30.1,125.7-70.9,195-87.1c136.9-32,207,136.5,336.6,138.2"/>
	<path class="st1" d="M0.3,462c114,16.5,238.7,28.2,353.4,11.8c113.3-16.2,233.6-79.5,349.4-49.3c29.8,7.8,54,12.7,85.1,6.8
		c30.7-5.8,60.3-17.1,89-29.2c66.9-28,132.1-66.5,203.6-81.8c138-29.5,200.8,136,330,136.7"/>
	<path class="st1" d="M0.3,459c113.7,15.9,238.7,29.8,353,11.1c110.4-18.1,226.9-85.5,340.8-56c30.4,7.9,55.3,13.2,87.1,8.3
		s62.8-15.2,93-26.4c70.1-25.8,138.6-61.8,212.5-76c62-12,110.4,10.4,158.7,47.7c50.1,38.7,97.9,87.9,165.4,87.8"/>
	<path class="st1" d="M0.3,455.9c113.6,15.2,239.4,31.3,353.3,9.9c107-20.1,219.1-91.7,330.6-63.2c31,7.9,56.7,13.8,89.2,9.8
		c33-4,65.3-13.3,97-23.4c73.3-23.5,145.2-56.8,221.5-69.9c62.2-10.6,109.8,9.3,157.9,47.5c48.7,38.6,94.6,87.7,161,87.2"/>
	<path class="st1" d="M0.3,453c113.6,14.3,240.8,32.7,354.3,8.4c103.1-22.1,210.2-98.1,319-70.6c31.5,8,58.1,14.5,91.2,11.5
		c34.2-3,67.9-11.2,101-20.3c76.5-21,151.7-51.8,230.6-63.5c62.3-9.3,109.3,8.3,157.3,47.4c47.3,38.5,91.4,87.6,157,86.7"/>
	<path class="st1" d="M0.4,450c64.1,7.5,128.3,14.4,192.8,16.6c53.8,1.8,110.4,2.8,163.1-10c98.8-24,200.6-104.7,306.5-78.1
		c32.1,8,59.4,15.2,93.1,13.2c35.4-2.1,70.5-9.1,105-17.2c79.7-18.5,158.2-46.6,239.6-57c62.5-8,109.1,7.5,157,47.4
		c46.2,38.5,88.5,87.5,153.4,86.3"/>
	<path class="st1" d="M0.4,447.1c64.8,6.9,129.7,14.1,194.9,16.2c53.7,1.8,110.8,2.7,163-11.7c94.3-25.9,190.2-111.3,293.1-85.6
		c32.6,8.1,60.7,16,95,15c36.6-1.1,73.1-7,109-14c82.8-16,164.5-41.4,248.6-50.4c62.7-6.7,109,6.9,156.8,47.5
		c45.2,38.4,85.7,87.6,150,86"/>
	<path class="st1" d="M0.4,444.2c65.7,6.4,131.3,13.7,197.3,15.7c53.7,1.7,111.2,2.5,163-13.4C450.5,419,540.2,328.6,640,353.4
		c33.2,8.2,61.9,16.8,96.7,16.8c37.8-0.1,75.6-4.9,112.9-10.8c85.8-13.5,170.7-36.2,257.3-43.8c31.9-2.8,65.8-4.2,96.2,7.7
		c22.8,8.9,42.3,24.1,60.5,40c44.2,38.5,83.2,87.6,147,85.8"/>
	<path class="st1" d="M0.5,441.3c66.6,5.8,133.1,13.2,199.9,15.2c53.6,1.5,111.8,2.5,163.1-15.1c85-29.2,168.4-124.4,265.2-100.5
		c33.6,8.3,63,17.7,98.4,18.5c39,0.9,78-2.9,116.6-7.7c88.7-11,176.6-31.1,265.8-37.4c32-2.2,66.7-3.8,97.2,8
		c22.5,8.8,41.7,23.9,59.6,39.8c43.3,38.6,80.9,87.7,144.4,85.6"/>
	<path class="st1" d="M0.5,438.5C68,443.6,135.4,451.2,203,453c53.5,1.4,112.7,2.5,163.4-16.9c80.3-30.6,157.5-130.7,251.3-107.6
		c34.1,8.4,64.1,18.5,99.9,20.1c40.1,1.8,80.3-0.9,120.3-4.6c91.5-8.6,182.2-26.1,274-31.1c32.2-1.7,67.5-3.5,98.2,8.4
		c22.3,8.6,41.2,23.7,58.7,39.6c42.6,38.7,78.8,87.9,142,85.6"/>
	<path class="st1" d="M0.5,435.6c68.4,4.5,136.7,12.3,205.2,14c53.5,1.3,113.6,2.5,163.8-18.6c75.8-31.9,146.7-136.7,237.8-114.3
		c34.5,8.5,65,19.3,101.2,21.7c41.2,2.7,82.6,1,123.7-1.7c94-6.3,187.5-21.3,281.7-25.1c32.3-1.3,68.3-3.2,99.1,8.6
		c22.1,8.5,40.8,23.5,58,39.5c41.9,38.9,76.9,88.1,139.9,85.6"/>
	<path class="st1" d="M0.5,432.7c69.3,3.9,138.4,11.8,207.9,13.4c53.3,1.2,114.6,2.6,164-20.2c43.8-20.1,77.6-55.5,115.2-84.7
		c31.7-24.7,68.2-46.1,109.8-35.8c34.8,8.6,65.9,20,102.3,23.1c42.2,3.6,84.6,2.8,126.8,1c96.4-4.1,192.4-16.7,288.9-19.4
		c32.5-0.9,68.9-3,99.9,8.8c22,8.4,40.4,23.4,57.4,39.4c41.3,39.1,75.2,88.3,138.1,85.7"/>
	<path class="st1" d="M0.6,429.8c70.2,3.2,140.1,11.4,210.4,12.9c53.2,1.1,115.6,2.6,164.4-21.7c42.3-21.1,73.6-57.6,108.7-88.2
		c29.4-25.6,63.7-48.1,104.4-38c35.1,8.7,66.6,20.6,103.3,24.4c43.1,4.4,86.5,4.5,129.7,3.6c98.6-2.1,196.8-12.4,295.4-14.2
		c32.6-0.6,69.4-3,100.5,8.8c21.9,8.3,40.2,23.3,56.8,39.3c40.8,39.3,73.7,88.5,136.5,85.8"/>
	<path class="st1" d="M0.6,426.9c71,2.6,141.7,11,212.7,12.4c53.1,1.1,116.6,2.6,164.7-23.1c41.1-21.9,70-59.6,102.9-91.4
		c27.3-26.4,59.6-49.8,99.7-39.8c35.3,8.9,67.1,21.2,104,25.4c43.9,5,88.2,6,132.3,5.9c100.5-0.3,200.8-8.5,301.3-9.6
		c32.7-0.4,69.8-3,101,8.6c21.8,8.2,39.9,23.1,56.4,39.2c40.4,39.6,72.2,88.8,135.2,85.9"/>
	<path class="st1" d="M0.6,423.9c71.7,2.1,143,10.7,214.7,12.1c53,1,117.5,2.5,165.1-24.3c40.1-22.6,66.9-61.3,97.8-94.1
		c25.6-27.1,56.1-51.3,95.7-41.2c35.4,9.1,67.5,21.6,104.4,26.3c44.6,5.6,89.6,7.3,134.5,7.9c102.2,1.4,204.2-4.9,306.4-5.5
		c32.8-0.2,70-3.3,101.3,8.3c21.8,8.1,39.8,23,56.1,39.2c40.1,39.9,71,89.1,134.1,86.1"/>
	<path class="st1" d="M0.6,420.9c72.3,1.6,144.1,10.5,216.4,11.9c53,1,118.2,2.4,165.4-25.3c39.4-23.1,64.4-62.7,93.8-96.4
		c24.2-27.8,53.3-52.5,92.6-42.2c35.5,9.3,67.6,21.8,104.6,26.8c45.2,6.1,90.8,8.4,136.4,9.6c103.5,2.8,207-1.7,310.6-2.2
		c32.8-0.2,70-3.7,101.4,7.8c21.8,8,39.7,22.9,55.9,39.2c39.9,40.2,69.9,89.4,133.2,86.3"/>
	<path class="st1" d="M0.6,417.9c72.7,1.1,145,10.4,217.6,11.9c53.1,1.1,118.6,2.1,165.6-26.1c39-23.4,62.7-63.8,90.8-98.1
		c23.3-28.5,51.3-53.3,90.6-42.7c35.3,9.6,67.6,21.9,104.4,27.2c45.6,6.5,91.8,9.2,137.8,10.9c104.6,3.9,209.2,1,313.8,0.3
		c32.8-0.2,69.9-4.3,101.3,7c21.8,7.9,39.7,22.8,55.7,39.1c39.7,40.5,69,89.7,132.5,86.5"/>
	<path class="st1" d="M0.5,414.8c73,0.8,145.4,10.5,218.4,12.2c53.3,1.2,118.6,1.8,165.8-26.7c39-23.5,61.7-64.5,89-99.4
		c22.8-29.2,50.3-53.7,89.8-42.6c35.2,9.9,67.3,21.8,104,27.1c45.9,6.7,92.4,9.8,138.7,11.9c105.3,4.8,210.7,3.2,316.1,1.9
		c32.7-0.4,69.4-5.2,100.9,6c21.8,7.8,39.7,22.7,55.6,39.1c39.6,40.8,68.2,90.1,132,86.7"/>
	<path class="st1" d="M0.5,411.6c69,0.3,137.6,9.2,206.5,11.7c54.6,2,121.9,4.2,171.1-23.6c40.2-22.7,64.5-63.4,92.5-98.6
		c23.7-29.8,52.6-57.2,93.5-45.6c32.5,9.2,62.7,20.3,96.5,25.5c49.3,7.6,99.2,10.9,148.9,13.1c105.6,4.8,211.3,3.2,316.9,1.8
		c30.8-0.4,65.2-5,95.1,4.6c24,7.6,43.3,23.8,60.4,41.7c38.2,40.1,67.1,87.7,128.8,85.5"/>
	<path class="st1" d="M0.4,408.6c68.7-0.4,136.9,8.5,205.4,11c54.5,1.9,122.7,4.6,171.1-24.8c39.4-23.9,64.7-63.5,94-97.7
		c24.7-28.8,54.6-55,95-44.1c32.7,8.8,62.9,19.9,96.8,25.1c49.1,7.5,98.9,10.6,148.5,12.8c105.1,4.5,210.3,2.7,315.4,1.1
		c30.8-0.5,65.3-5.2,95.3,3.8c24.1,7.2,43.6,23.2,60.8,41c38.1,39.5,66.9,88.4,128,87.8"/>
	<path class="st1" d="M0.4,405.6c68.2-1.2,136,7.6,204.1,9.9c54.7,1.8,123.1,4.5,171-26.2c38.8-24.9,65.3-63.3,96.3-96.5
		c25.9-27.8,57.1-52.4,97.3-42.2c32.7,8.3,63.1,19.5,96.9,24.5c48.9,7.3,98.4,10.3,147.8,12.2c104.4,4.1,208.9,1.9,313.4,0
		c30.7-0.6,65.3-5.5,95.3,2.9c24.3,6.9,44,22.6,61.2,40.4c37.9,39,66.6,89.3,127,90.3"/>
	<path class="st1" d="M0.4,402.8c67.6-2.2,135,6.4,202.5,8.4c55,1.6,123.3,4,170.9-27.9c38.4-25.8,66.5-63,99.3-94.9
		c27.5-26.7,60.2-49.6,100.3-39.9c32.7,7.9,63.2,19,96.9,23.8c48.6,7,97.8,9.8,146.9,11.5c103.6,3.6,207.3,0.9,310.9-1.5
		c30.5-0.7,65.2-6,95.1,2c24.4,6.5,44.2,22.2,61.6,40c37.7,38.6,66.2,90.4,125.8,93.2"/>
	<path class="st1" d="M0.3,400c67-3.4,133.8,4.9,200.7,6.5c55.4,1.3,123.2,3.1,170.7-29.7c59.8-41.4,121.8-149.9,206.8-130.3
		c32.7,7.5,63.2,18.4,96.8,23c48.3,6.7,97.1,9.2,145.8,10.6c102.7,3,205.4-0.3,308.1-3.4c30.4-0.9,65-6.5,94.8,1
		c24.5,6.2,44.5,21.9,61.9,39.6c35.5,36.2,67.1,95.6,124.6,96.3"/>
	<path class="st1" d="M0.3,397.3c66.2-4.8,132.5,3.3,198.7,4.3c56,0.9,122.9,1.9,170.4-31.8c61.5-43.5,128.7-144.3,215.3-125.2
		c32.6,7.2,63.2,17.7,96.7,22.1c47.9,6.3,96.3,8.4,144.5,9.5c101.6,2.3,203.3-1.6,304.8-5.5c30.2-1.2,64.6-7.2,94.3,0
		c24.7,6,44.7,21.6,62.1,39.4c35.2,36.1,66.4,97,123.2,99.7"/>
	<path class="st1" d="M0.3,394.7c69.2-6.7,138.8,2.2,208,1.9c57.7-0.3,117.1-3.4,164.7-38.5c62-45.8,132.1-133.2,218.8-115
		c35,7.3,67.8,18,103.8,22c44.2,5,88.7,6.7,133.2,7.4c100,1.6,200-3,299.9-7.8c31.6-1.5,68.4-8.6,99.5-0.8
		c22.7,5.7,41.5,19.9,57.8,36c36.7,36.2,66.9,101,124.4,106.2"/>
	<path class="st1" d="M0.3,392.1c118.3-17,266.4,34.2,370.1-41.9c64.7-47.5,140.7-126.8,229.2-108.8c34.8,7.1,67.6,17.2,103.4,20.9
		c43.7,4.5,87.7,5.9,131.7,6.2c98.8,0.7,197.5-4.7,296-10.6c31.3-1.9,67.9-9.4,98.8-1.9c22.8,5.6,41.6,19.8,58,36
		c36.6,36.4,66.1,102.5,122.8,110"/>
	<path class="st1" d="M0.3,389.7c119.9-21.3,261.5,29.2,367.3-47.5c67.9-49.2,149.9-120,240.5-102c34.7,6.9,67.3,16.3,102.9,19.6
		c43.2,4.1,86.7,5,130,4.8c97.4-0.3,194.7-6.6,291.8-13.6c31-2.2,67.3-10.4,98-3.1c22.9,5.4,41.8,19.7,58.1,36.1
		c36.6,36.7,65.3,103.9,121.2,114.1"/>
	<path class="st1" d="M0.3,387.4c65-14.1,134.5-4.9,200.4-7.4c28.8-1.1,57.8-3.4,86.1-9.5c30.6-6.6,52.7-18.5,77.9-36.5
		C436.1,283,524.4,221,617.2,239c34.4,6.7,67,15.4,102.3,18.3c42.6,3.5,85.5,4,128.3,3.3c96-1.4,191.8-8.6,287.4-16.8
		c30.7-2.6,66.6-11.3,97.1-4.2c23,5.3,41.9,19.7,58.2,36.2c36.7,37.1,64.3,105.3,119.5,118.3"/>
	<path class="st1" d="M0.3,385.1c63.3-16.5,132.9-7.6,197.7-10.9c28.8-1.5,57.7-4.2,85.8-10.8c30.6-7.2,52.5-20.2,77.9-37.9
		c75.2-52.6,169.9-105.6,265.3-87.5c34.2,6.5,66.7,14.5,101.7,17c42.1,3,84.3,2.9,126.5,1.8c94.5-2.4,188.8-10.6,282.8-20.1
		c30.4-3.1,65.8-12.3,96.1-5.5c23.1,5.2,42,19.8,58.2,36.4c36.9,37.8,63.3,106.6,117.7,122.7"/>
	<path class="st1" d="M0.3,382.9c60.9-18.9,130.2-10.5,193.1-14.5c28.5-1.8,57.2-4.8,85-11.6c30.4-7.5,52.3-20.8,77.7-38.3
		c80-55.1,181.8-99.6,280.8-81.3c31,5.7,60.5,12.7,92.2,14.9c46.8,3.2,93.8,2.4,140.6,0.5c91.8-3.9,183.4-13.1,274.7-23.8
		c29.5-3.5,63.5-13,93-5.8c22.8,5.6,41.6,20.5,57.4,37.2c36.7,38.5,61.8,107.1,114.9,126.2"/>
	<path class="st1" d="M0.3,380.8C59,359.3,129,367.3,190.4,362.6c28.4-2.2,57-5.6,84.7-13c30.4-8.1,52.1-22.5,77.8-39.8
		c84.2-56.8,192.7-91.8,294.6-73.3c164.9,29.9,334.9,7.1,499.8-15.3c29.2-4,62.7-14.1,92-7.1c22.9,5.5,41.6,20.6,57.4,37.5
		c37.1,39.5,60.8,108.3,113,130.8"/>
	<path class="st1" d="M0.3,378.8c55.8-24,126.1-16.5,185.4-21.9c31.9-2.9,64.1-7.1,94.6-17.1c25.5-8.3,44.6-22.3,66.7-37.1
		c88.8-59.5,205.4-86,311.1-66.9c163,29.4,333.3,2.4,495.5-22.8c25.6-4,53.6-12.7,79.7-9.1c26.7,3.6,48.4,20.9,66,40.2
		c37.1,40.6,59.3,108.5,110.2,134.4"/>
	<path class="st1" d="M0.3,376.9c53.2-26.7,124.7-19.7,182.4-25.8c31.8-3.4,63.9-8.1,94.1-18.7c25.4-8.9,44.5-23.9,66.7-38.4
		c93.4-61.2,216.6-78,325.4-58.7c159.9,28.4,329.3-2.2,487.4-30c25.3-4.4,52.8-13.7,78.7-10.3c26.8,3.5,48.5,21.1,66,40.6
		c37.7,41.9,58.4,109.5,108.2,139.1"/>
	<path class="st1" d="M0.3,375.1c49.8-29.1,122.2-22.9,177.7-29.5c31.5-3.8,63.4-8.8,93.3-19.7c25.2-9.2,44.2-24.4,66.2-38.9
		c98.3-64.5,229.5-71.7,342.4-52c72.4,12.6,143.8,9.9,216.8,2.6c86.9-8.6,173.4-22.4,259-39.2c26.4-5.2,55.8-16.1,82.9-11.9
		c26.7,4.2,47.8,22,65.1,41.7c37.8,43.1,57.3,109.6,105.4,142.8"/>
	<path class="st1" d="M0.3,373.3c21.5-14.6,49.8-18.4,75-21.9c32.6-4.5,65.4-7,98-11.3c31.2-4.2,62.8-9.6,92.4-20.8
		c28.8-10.9,50-30.2,76-45.8c102.3-61.2,235.6-58.4,349.2-38.9c73.4,12.6,146.6,7.4,220.3-1.4c82-9.8,163.5-24.2,244.2-41.6
		c27.5-5.9,58.4-18.5,86.8-13.5c26.4,4.7,47.3,23,64.2,42.8c37.8,44.4,56.2,109.7,102.5,146.4"/>
	<path class="st1" d="M0.3,371.7c19.9-15.7,47.7-20,72-24c32-5.2,64.4-8.1,96.5-12.8c30.9-4.6,62.3-10.4,91.5-21.8
		c28.6-11.2,49.5-30.8,75.4-46.4c107-64.2,248.3-52.4,366.2-32.3c68.8,11.8,138.1,5.6,207-3.5c85-11.1,169.6-27.5,252.9-47.5
		c26.8-6.4,56.2-19.1,84.1-13.6c26.3,5.2,46.8,24,63.3,44c37.9,45.7,55.4,109.9,99.6,150"/>
	<path class="st1" d="M0.4,370.1c18.4-16.8,46.1-21.8,69.7-26.1c31.7-5.9,63.9-9.2,95.8-14.4c30.8-5.1,62.1-11.3,91.1-23.3
		c28.5-11.8,49.2-32.4,75.4-47.8c111.5-65.6,259.1-44.6,380.3-24.1c67.8,11.5,136.8,3.4,204.3-6.6c83.4-12.4,166.2-29.9,247.7-51.3
		c26.5-7,55.2-20.2,83-14.8c26.3,5.1,47,24.2,63.3,44.3c38.3,47.2,55.4,110.9,97.7,154.6"/>
	<path class="st1" d="M0.4,368.6c16.7-17.7,44-23.3,66.8-28.1c31.2-6.5,62.9-10.2,94.2-15.8c30.6-5.4,61.6-12,90.3-24.2
		c28.3-12,48.6-32.9,74.6-48.5c116.2-69.5,271.3-38.1,396.9-17.7c68.8,11.1,139.4,0.8,207.5-10.8c80.9-13.8,161-32.2,239.8-55
		c25.9-7.5,53-20.7,80.6-14.8c26.1,5.6,46.5,25.2,62.5,45.4c38.2,48.4,55.1,111.2,94.9,158"/>
	<path class="st1" d="M0.4,367.2c25.8-30.1,78.6-33.5,114.8-39.7c47.5-8.2,97.4-15.3,141.1-37c20-9.9,35.1-24.8,53.1-37.5
		c23-16.2,49.3-27,76.4-34.2c54.6-14.4,112.4-14.4,168.4-10c52.9,4.1,105.3,12.9,157.6,21.8c51.1,8.7,99.1,8.4,150.6,1.9
		c120-15.3,234.6-49.7,350.2-83.7c110.5-32.6,147.4,142.2,195.7,205.3"/>
	<path class="st1" d="M0.4,365.9c23.8-32.4,79.7-36.4,115.8-43.2c46.7-8.7,95.6-16.6,138-39c19.6-10.3,34.3-25.5,52.2-38.1
		c23.1-16.3,49.6-27,76.9-33.8c58-14.3,119.5-12.1,178.4-6c53.7,5.6,106.7,15.6,159.8,24.8c50,8.7,96.9,7.5,147.2,0.3
		c118.8-16.9,231.3-53.5,345.2-89.2c110.6-34.7,150.2,144.1,194.2,209.4"/>
	<path class="st1" d="M0.4,364.7c21.3-33.6,77-38.5,112.1-45.6c46.3-9.3,94.8-17.6,137-40.1c21.3-11.4,36.7-28.8,56.4-42.2
		c23.6-16.1,50.9-26.1,78.7-32.2c59.9-13.1,122.6-9,182.9-1.4c54.8,6.9,108.8,18.1,163.2,27.6c49.4,8.7,95.7,6.6,145.2-1.2
		c115.8-18.3,227.3-54.1,337.3-93.5c111.7-40,155.1,145.4,194.9,212.4"/>
	<path class="st1" d="M0.4,363.6c18.7-34.6,74.3-40.5,108.6-47.8c47.5-10.2,97.9-19,140.5-43.6c19.1-11,33-27.4,50.7-40.1
		c25.3-18.1,55.3-28.7,85.7-34.5c61.5-11.8,125.7-5.9,187.2,3.1c55.7,8.1,110.7,20.4,166,30.3c48.9,8.7,94.6,5.7,143.5-2.7
		c115.5-20,224.6-59.1,334.2-99.2S1373.2,279.5,1408,346"/>
	<path class="st1" d="M0.4,362.5c16.2-35.4,71.9-42.3,105.2-49.9c47.2-10.7,97.3-19.7,139.6-44.4c20.7-12.1,35.6-30.4,55.1-44
		c23.9-16.6,51.9-26.5,80.3-31.9c62.6-11.9,128.1-5,190.4,4.9c59.1,9.4,117.2,23.4,176.1,34c48.3,8.7,93.5,4.9,141.6-4.1
		c115.3-21.6,222.1-64.2,331.5-104.5c108-39.8,157,154.7,187.6,221.1"/>
	<path class="st1" d="M0.5,361.6c13.8-36,69.5-43.9,102-51.7c48.5-11.5,100.3-21,143.2-47.7c18.7-11.6,32-28.6,49.6-41.5
		c25.6-18.8,56-29.1,87.1-34.3c64-10.8,130.4-2.2,193.8,8.9c59.8,10.5,118.6,25.5,178.3,36.3c50,9,96.7,3.7,146.3-6.6
		c110.8-23.1,214.1-64.6,318.6-106.5c110.2-44.3,160.6,154.3,188.5,223.2"/>
	<path class="st1" d="M0.5,360.7c11.6-36.6,67.1-45.3,99-53.2c48.3-12,99.7-21.5,142.6-48.1c20.4-12.7,34.3-31.8,53.7-45.7
		c24-17.2,52.5-26.6,81.3-31.7c67.1-11.8,137.6-1.1,203.7,11.5c60.2,11.5,119.7,27.6,180.1,38.4c49.5,8.9,95.7,2.9,144.6-7.8
		c110.8-24.4,212.2-68.9,316.7-111c109.3-44.1,161.1,158.3,185.5,226.8"/>
	<path class="st1" d="M0.5,360c9.9-38.3,68.8-47.6,100.5-55.6c47.5-12,98.5-21.9,140.3-48.8c20.1-12.9,33.6-32.2,52.7-46.1
		c25.8-18.7,56.3-28.6,87.7-33c68.2-9.6,138.3,2.2,205.1,16c60.2,12.4,119.5,29.2,180,39.9c48.5,8.6,94.2,2.3,141.9-8.7
		c109.8-25.2,211.2-69.9,314.1-114.2c109.8-47.3,163.3,159.7,184.8,228.9"/>
	<path class="st1" d="M0.5,359.3c7.9-38.9,66.4-48.5,97.8-56.6c47.3-12.2,98.2-22.1,140.1-48.7c20-12.7,33.2-31.6,51.4-46.1
		c25-19.8,55.5-30,86.7-34.8c68.4-10.4,139.5,2.4,206.4,16.7c63,13.5,125.1,31.9,188.6,43c47.9,8.4,93.6,1.7,140.6-9.5
		c108-25.7,208.9-69.9,309.3-115.8c112.4-51.3,166.7,157.5,186.1,229.7"/>
	<path class="st1" d="M0.5,358.7c6.1-39.3,64.3-49.2,95.3-57.3c48.8-12.7,101.4-22.6,144.1-51.1c19.9-13.2,32.6-32.9,51.2-47.5
		c24.9-19.5,56.1-29.4,87.1-33.7c69.1-9.4,140.7,4.7,208,19.9c63,14.2,125.2,33.5,189,44.3c49.3,8.4,97,0.4,145.1-11.7
		c106.2-26.7,204.2-72.2,303.4-117.3c112.1-51,167,159.9,183.7,232"/>
	<path class="st1" d="M0.5,358.2c4.5-41,66.8-50.9,98.4-59c47.1-12.2,97.5-22,138.9-49c20-13,32.3-32.1,50-47.3
		c23.9-20.5,54.6-31.3,85.4-35.9c71.6-10.8,146.4,5.2,216,21.6c62.8,14.8,124.9,34.7,188.7,45.2c48.8,8.1,96.5-0.1,144-12.3
		c106.8-27.3,204.2-74.5,304-119.5c112-50.5,167.2,161.7,181.6,233.8"/>
	<path class="st1" d="M0.5,357.8c2.9-41,65.5-51.1,96.3-59c47.1-12,97.5-21.6,139.2-48c22.1-14,34.4-34.6,53.9-51.2
		c24.2-20.5,54.2-30.8,85.3-35.1c71.9-10,146.7,7,216.2,24.1c62.4,15.3,124.3,36,187.9,45.9c48.3,7.5,96.1-0.7,142.9-12.7
		c105.2-26.9,204.1-72.3,301.5-119.1c114.6-55,170.9,157.6,183.6,233"/>
</g>
<rect x="0.5" class="st2" width="1406.9" height="530.7"/>
</svg>
